<svg width="282" height="39" viewBox="0 0 282 39" fill="none" xmlns="http://www.w3.org/2000/svg">
<g clip-path="url(#clip0_356_140)">
<path d="M102.5 6.21833V0H69.5225C66.3466 0 63.7078 1.08364 61.4546 3.31312C60.5542 4.20393 59.8442 5.15393 59.3125 6.18313H80.7193V6.2183L102.5 6.21833Z" fill="white"/>
<path d="M220.952 6.21833V0H187.975C184.799 0 182.16 1.08364 179.906 3.31312C179.006 4.20393 178.296 5.15393 177.765 6.18313H200.372V6.2183L220.952 6.21833Z" fill="white"/>
<path d="M11.4173 39H44.3941V32.7815H18.0598C15.7319 32.7815 13.7192 31.9736 12.078 30.3804C10.4172 28.7055 9.58787 26.7147 9.58787 24.4383V0H0V27.705C0 30.8475 1.09517 33.4585 3.34878 35.6867C5.58092 37.9185 8.21795 39 11.4173 39Z" fill="white"/>
<path d="M167.086 0H114.417V6.21849H135.938V39H145.526V6.21849H167.086V0Z" fill="white"/>
<path d="M249.023 39H282V32.7815H255.666C253.338 32.7815 251.325 31.9736 249.684 30.3804C248.023 28.7052 247.193 26.7143 247.193 24.4383V0H237.606V27.705C237.606 30.8475 238.701 33.4585 240.955 35.6867C243.187 37.9185 245.824 39 249.023 39Z" fill="white"/>
<path d="M78.8899 16.4398H58.1055V27.7048C58.1055 30.8475 59.201 33.4584 61.4543 35.6869C63.6864 37.9185 66.3231 38.9998 69.5225 38.9998H103.315V32.7815H72.8248C71.453 32.7815 70.2089 32.288 69.2263 31.3545L69.1762 31.305C68.2057 30.3088 67.693 29.0638 67.693 27.7048V22.6286H101.683V16.4099H80.7194L78.8899 16.4398Z" fill="white"/>
<path d="M198.543 16.4398H176.558V27.7048C176.558 30.8475 177.653 33.4584 179.906 35.6869C182.139 37.9185 184.775 38.9998 187.975 38.9998H221.767V32.7815H191.277C189.905 32.7815 188.661 32.288 187.678 31.3545L187.628 31.305C186.658 30.3088 186.145 29.0638 186.145 27.7048V22.6286H220.136V16.4099H200.372L198.543 16.4398Z" fill="white"/>
</g>
<defs>
<clipPath id="clip0_356_140">
<rect width="282" height="39" fill="white"/>
</clipPath>
</defs>
</svg>
