<svg id="footer-logo" xmlns="http://www.w3.org/2000/svg" width="280.931" height="64.287" viewBox="0 0 280.931 64.287">
  <path id="Path_4402" data-name="Path 4402" d="M0,0H280.931V53.176H0ZM85.033,20.373h.008c-.271-.131-.538-.267-.81-.4-.2-.089-.39-.178-.581-.267l-1.433-.492-.182-.064a16.149,16.149,0,0,0-8.245-.382L73.6,18.8c-.208.047-.411.1-.619.144-.064.017-.123.03-.187.047-.292.085-.589.165-.882.25a.111.111,0,0,0-.144.051l0,0c-.059.03-.119.055-.178.085l-1.649.687a10.4,10.4,0,0,0-1.051.564,15.983,15.983,0,0,0-7.3,14.765c.437,8.983,6.393,15.714,16.507,15.083a14.1,14.1,0,0,0,9.466-4.239c4.388-4.481,5.6-9.945,4.574-15.952A13.08,13.08,0,0,0,85.7,20.763c-.225-.127-.449-.254-.67-.382Zm15.18,27.771v-.013c-.187.28-.377.56-.568.839-.059.03-.119.055-.178.085-.263.085-.53.165-.793.25l-.216.127c-.229.051-.454.1-.683.148-.1-.038-.208-.072-.309-.11.013.119,0,.326.047.335a6.191,6.191,0,0,0,.746.1c.4,0,.81-.008,1.212-.017.195,0,.394,0,.589-.008.14-.013.28-.025.42-.042.326-.017.657-.034.983-.055.339,0,.678,0,1.013.008.119.025.242.055.36.081a15.041,15.041,0,0,0,3.832-.064c0-.119-.008-.237-.013-.356-.865-.157-1.73-.309-2.59-.466-1.115-.916-1.111-2.238-1.149-3.48-.195-5.884-.339-11.768-.492-17.652-.021-.894,0-1.789,0-2.9,7.635,8.775,15.079,17.385,23.163,25.405l.365-.174c.038-.407.076-.81.11-1.217v-.632a.08.08,0,0,0,0-.123v-.64c0-.733,0-1.467,0-2.2q0-7.1.013-14.2c.013-.933.021-1.865.034-2.8V22.972c.03-.263.068-.521.085-.784.131-2.035.284-2.192,2.387-2.6.153-.03.28-.195.534-.377a2.961,2.961,0,0,0-.678-.208q-3.853-.019-7.7,0a2.155,2.155,0,0,0-.687.254c.017.1.034.2.051.309.377.03.759.051,1.136.085,1.891.174,2.421.733,2.505,2.654.051,1.162.11,2.327.131,3.489q.165,8.635.314,17.27c0,.331,0,.661,0,1.293-.4-.458-.585-.682-.78-.9q-10.549-11.891-21.1-23.777c-.369-.415-.81-.772-1.217-1.157q-.547.25-.534,1.471c0,.267.013.534.017.8v13.6c0,.928-.008,1.853-.008,2.781-.038.458-.1.916-.11,1.373-.064,3.078-.114,6.155-.17,9.229-.008.068-.017.136-.025.2a.137.137,0,0,0-.038.165ZM16.075,19.826c.22-.131.437-.267.657-.4h.059l.055-.021c.606-.4,1.217-.793,1.823-1.191v.008c.343-.127.687-.242,1.026-.377a52.62,52.62,0,0,1,6.232-2.408C28.767,14.718,31.7,14.4,34.6,13.9a66.466,66.466,0,0,0-8.419.593,51.22,51.22,0,0,0-6.74,2.077.732.732,0,0,0-.191.021c-.068-.064-.131-.131-.2-.195,0-.123,0-.25,0-.373a4.818,4.818,0,0,0,.14-.763c.025-2.887.038-5.769.055-8.656.666-2.293,1.183-2.7,3.578-2.806.1,0,.22.03.3-.013.373-.2.738-.424,1.1-.64-.369-.182-.733-.517-1.1-.517-2.365.008-4.731.144-7.1.14-2.768,0-5.532-.11-8.3-.165a3.349,3.349,0,0,0-.992.055c-.2.059-.483.314-.487.487a.721.721,0,0,0,.432.547,7.912,7.912,0,0,0,1.386.114c2.018.11,2.878.869,3.179,2.866a14.249,14.249,0,0,1,.17,2.077c.021,4.392.017,8.783.042,13.175a3.7,3.7,0,0,0,.284.983c.369-.157.738-.309,1.106-.466l1.611-1.42h0q.8-.6,1.607-1.2h0ZM226.8,32.756c-.013-1.183-.025-2.37-.038-3.552V25.312a1.8,1.8,0,0,1,.844.615c3.688,4.2,7.342,8.436,11.077,12.594,3.048,3.4,6.185,6.711,9.3,10.038.593.632,1.3,1.162,1.954,1.742.1-.047.2-.1.3-.144a9.259,9.259,0,0,0,.191-1.314c.021-2.929.013-5.863.017-8.792.008-5.829-.03-11.658.055-17.486.034-2.293.454-2.811,2.357-2.984.144-.013.271-.182.454-.309-1.089-.471-8.41-.335-8.949.246.445.042.788.081,1.132.106,1.8.14,2.45.767,2.543,2.548.089,1.691.14,3.387.182,5.083.076,2.891.157,5.786.191,8.677.034,2.683.008,5.367.008,8.249-3.93-4.43-7.724-8.745-11.564-13.018s-7.609-8.635-11.692-12.772a5.112,5.112,0,0,0-.36,1.827c-.025,8.627-.025,17.253-.064,25.88,0,1.081-.013,2.221-1,3.006a13.491,13.491,0,0,0-1.382.123,2.784,2.784,0,0,0-.712.369c.22.127.441.352.666.36.827.021,1.649-.034,2.476-.059.878-.017,1.751-.03,2.628-.047a.811.811,0,0,0,.174-.021c.131,0,.259.013.39.017a6.831,6.831,0,0,0,2.989-.021v-.394l-2.777-.471c-.954-1.166-.924-2.586-.983-3.959-.136-3.209-.2-6.422-.3-9.636-.008-.61-.017-1.221-.025-1.827l-.089-.788ZM157.98,20.717a4.85,4.85,0,0,0-.5,3.027l.309.106q.515-1.03,1.03-2.056c.835-.267,1.662-.581,2.514-.78a8.383,8.383,0,0,1,1.789-.148c1.751-.017,3.5,0,5.261,0,.021.331.042.526.042.725,0,7.156.017,14.316-.008,21.471,0,1.424-.153,2.853-.259,4.277a1.82,1.82,0,0,1-1.84,1.946,2.41,2.41,0,0,0-.678.254V49.8a3.969,3.969,0,0,0,.75.165q4.159.019,8.313,0a3.417,3.417,0,0,0,.886-.246c-.013-.1-.025-.2-.038-.3-.61-.081-1.221-.191-1.84-.237a1.462,1.462,0,0,1-1.5-1.217,13.455,13.455,0,0,1-.335-2.56c-.025-8.177-.017-16.355-.017-24.74,2.522.178,5.045.292,7.55.551,1.361.14,1.891.852,2.081,2.251a4.756,4.756,0,0,0,.28.839l.335-.051V18.737c-.36.072-.7.144-1.051.216a.524.524,0,0,0-.182.017q-9.786.013-19.572.013a9.5,9.5,0,0,1-1.577-.2c-1.471-.25-1.484-.246-1.721,1.31a4.793,4.793,0,0,0-.025.5.155.155,0,0,0,0,.123ZM267.535,35.011c.008-.14.017-.276.025-.415.246-.136.492-.39.729-.382,1.734.038,3.472.055,5.2.225,1.539.153,1.98.7,2.2,2.238.042.284.089.568.136.856l.356-.017c.178-1.954.352-3.908.534-5.909a8.144,8.144,0,0,1-2.187.928c-1.992.17-4,.153-6,.225-.581.021-.856-.178-.852-.8.013-3.531,0-7.062.03-10.594,0-.25.373-.725.56-.716,2.124.089,4.256.195,6.371.424a1.684,1.684,0,0,1,1.5,1.738,10.877,10.877,0,0,0,.259,1.3c.136,0,.267,0,.4-.008.191-1.793.382-3.582.576-5.4-5.587.835-11,.216-16.427.5a3.311,3.311,0,0,0,1.492.551,1.7,1.7,0,0,1,1.653,1.679c.085,1.094.178,2.187.182,3.281.021,4,.034,7.995,0,11.992-.025,3.294-.106,6.588-.187,9.877-.047,1.886-.42,2.306-2.251,2.777-.131.034-.233.174-.589.449a10.413,10.413,0,0,0,1.259.144c1.2-.038,2.4-.178,3.595-.148,2.365.059,4.727.237,7.092.309a21.3,21.3,0,0,0,3.489-.136,1.521,1.521,0,0,0,1.06-.928,38.834,38.834,0,0,0,.568-4.036,1.861,1.861,0,0,0-.182-.632l-.28.013c-.106.4-.237.788-.309,1.2a2.858,2.858,0,0,1-2.633,2.573,33.1,33.1,0,0,1-3.489.178c-2.8-.013-3.128-.284-3.845-2.857a.451.451,0,0,0-.047-.089q.032-3.326.068-6.647l-.076-3.408v-.013c0-.11.009-.22.013-.331ZM52.925,48.983c.271.14.538.284.81.424l.259.106h.017l.5.165c2.06.513,6.109.407,6.494-.119-1.272-.331-2.565-.67-3.858-1.009A17.55,17.55,0,0,1,54.714,46.5c-2.883-3.48-5.68-7.028-8.58-10.644.386-.339.653-.538.882-.776a14.193,14.193,0,0,0,3.6-5.8c1.348-4.519-.725-8.614-5.028-9.78a12.862,12.862,0,0,0-3.061-.445c-3.4-.068-6.8-.055-10.2-.064a6.011,6.011,0,0,0-.9.127c0,.1-.008.2-.013.309a6.311,6.311,0,0,0,.869.208c1.81.182,2.365.729,2.421,2.505.042,1.331.081,2.658.085,3.989.013,4.794.034,9.589,0,14.383-.013,2.128-.161,4.252-.208,6.38a2.487,2.487,0,0,1-1.916,2.649c-.191.055-.377.123-.564.187,3.112.2,6.193.208,9.275.187.136,0,.271-.22.39-.326a15.445,15.445,0,0,1-2.56-.606,1.979,1.979,0,0,1-.848-1.132,5.112,5.112,0,0,1-.246-1.67c-.051-2.993-.076-5.99-.1-8.983a1.713,1.713,0,0,1,.093-.373c1.382,0,2.713.047,4.044-.017a1.981,1.981,0,0,1,1.9.967c2.149,3.048,4.32,6.079,6.566,9.055a17.789,17.789,0,0,0,2.31,2.158ZM18.856,21.429A32.9,32.9,0,0,0,3.336,36.016a40.3,40.3,0,0,1,8.105-7.978c.03.352.055.543.055.733,0,3.794.051,7.588-.021,11.378-.047,2.289-.208,4.582-.462,6.855-.174,1.535-.721,1.942-2.276,2.166-.627.089-1.267.081-1.886.187-.2.034-.509.288-.513.449,0,.187.242.42.432.555a.985.985,0,0,0,.581.114c1.433-.047,2.861-.106,4.29-.165,1.543-.025,3.086-.055,4.629-.081l.356.021.458.013h.763c.14.008.276.013.415.021l.39.025c2.06.051,4.125.136,6.185.127.348,0,.691-.377,1.034-.581a3.4,3.4,0,0,0-1.009-.543c-1.017-.148-2.06-.14-3.078-.293a2.411,2.411,0,0,1-2.319-2.332,9.234,9.234,0,0,1-.161-1.484q-.108-9.22-.2-18.44-.025-2.391-.047-4.782c-.064-.187-.131-.373-.195-.56Zm184.656,28.9a14.446,14.446,0,0,0,10.873-7.283,18.023,18.023,0,0,0,2.1-12.815,13.664,13.664,0,0,0-6.8-9.75,15.357,15.357,0,0,0-6.439-1.988c-4.43-.4-8.546.441-11.891,3.548-5.151,4.782-6.558,10.717-4.833,17.385,1.5,5.8,5.833,10.144,12.014,10.9h4.981Zm-65.931-7.474c-.093,0-.191,0-.284,0-.085.131-.233.263-.237.4-.081,1.691-.157,3.383-.208,5.07-.021.691.411,1.051,1.022,1.306a12.176,12.176,0,0,0,5.375.916c3.247-.174,6.053-1.259,7.652-4.269a8.594,8.594,0,0,0-.339-9.368,29.812,29.812,0,0,0-3.985-4.3c-1.526-1.484-3.243-2.777-4.731-4.29a5.141,5.141,0,0,1-.174-6.986c1.229-1.361,2.844-1.446,4.519-1.352a4.232,4.232,0,0,1,4.4,3.917,4.912,4.912,0,0,0,.229.708c.136-.017.276-.034.411-.047.051-1.7.114-3.4.136-5.1,0-.14-.259-.394-.424-.415a44.7,44.7,0,0,0-5.748-.589,7.345,7.345,0,0,0-7.245,9.267c.623,2.836,2.488,4.79,4.544,6.638,1.611,1.45,3.256,2.866,4.765,4.409a6.377,6.377,0,0,1,1.344,7.194c-.958,2.077-2.908,3.184-5.613,2.98-2.84-.212-5.206-1.844-5.261-5.172a5.686,5.686,0,0,0-.153-.911Z" fill="none"/>
  <path id="Path_4403" data-name="Path 4403" d="M530.981,60.362c.093,3.213.161,6.427.3,9.636.059,1.373.025,2.794.983,3.959-.068.2-.131.407-.2.61-.03-.013-.055-.03-.085-.042.026.017.051.03.081.047,0,.089,0,.178-.008.271-.131,0-.259-.013-.39-.021l-.106-.131c-.021.051-.047.1-.068.153-.878.017-1.751.03-2.628.047-.348-.267-.7-.53-1.047-.8.988-.784,1-1.925,1-3.006.038-8.627.038-17.253.064-25.88a5.094,5.094,0,0,1,.36-1.827c4.078,4.137,7.842,8.5,11.692,12.772s7.635,8.588,11.564,13.018c0-2.883.025-5.566-.008-8.249-.034-2.9-.119-5.786-.191-8.677-.042-1.7-.093-3.391-.182-5.083-.093-1.78-.75-2.408-2.543-2.548-.343-.025-.687-.064-1.132-.106.534-.581,7.859-.716,8.949-.246-.178.127-.309.3-.454.309-1.9.174-2.327.691-2.357,2.984-.085,5.829-.047,11.658-.055,17.486,0,2.929,0,5.863-.017,8.792a8.843,8.843,0,0,1-.191,1.314c-.1.047-.2.1-.3.144-.653-.577-1.361-1.106-1.954-1.742-3.12-3.328-6.257-6.643-9.3-10.038-3.735-4.159-7.389-8.393-11.077-12.594a1.8,1.8,0,0,0-.844-.615v3.892c-.055.119-.157.233-.157.352-.013,1.763-.021,3.527,0,5.29,0,.178.2.352.31.53Z" transform="translate(-304.065 -24.991)" fill="#90b9ce"/>
  <path id="Path_4404" data-name="Path 4404" d="M451.054,75.331c-6.181-.759-10.513-5.1-12.014-10.9-1.721-6.668-.318-12.6,4.833-17.385,3.345-3.1,7.461-3.947,11.891-3.548a15.4,15.4,0,0,1,6.439,1.988,13.656,13.656,0,0,1,6.8,9.75,18.022,18.022,0,0,1-2.1,12.815,14.424,14.424,0,0,1-10.873,7.283H451.05Zm-8.873-17.075c.013,4.561,1,7.974,3.268,10.967a10.922,10.922,0,0,0,9.262,4.688c4.926-.144,8.317-2.777,9.9-7.724a20.854,20.854,0,0,0,.246-11.5c-1.5-6.1-6.435-10.594-12.984-9.695a10.2,10.2,0,0,0-7.024,3.959C442.754,51.693,442.165,54.894,442.182,58.256Z" transform="translate(-252.523 -25.004)" fill="#90b9ce"/>
  <path id="Path_4405" data-name="Path 4405" d="M167.306,45.2c.2.089.39.178.581.267l.81.407h-.008c.225.127.449.254.67.382a13.088,13.088,0,0,1,6.435,9.521c1.026,6.007-.187,11.471-4.574,15.952a14.089,14.089,0,0,1-9.466,4.239c-10.115.636-16.071-6.1-16.507-15.083a15.979,15.979,0,0,1,7.3-14.765,10.4,10.4,0,0,1,1.051-.564c.7.131,1.348.136,1.649-.687.059-.03.119-.055.178-.085.034.042.068.089-.008-.013.081.1.047.059.013.017a.111.111,0,0,1,.144-.051c.292-.085.589-.165.882-.25.064-.017.123-.03.187-.047.208-.047.411-.1.619-.144l.191-.038a6.172,6.172,0,0,0,.92.136c1.6.013,3.2-.025,4.79.013.848.017,1.691.148,2.535.229l.182.064c.335.577.772.861,1.433.492Zm5.028,14.557a16.122,16.122,0,0,0-3.209-9.97,10.74,10.74,0,0,0-10.865-4.252,10.164,10.164,0,0,0-8.313,7.067,19.619,19.619,0,0,0-.339,11.509,13.914,13.914,0,0,0,5.062,8.033A10.526,10.526,0,0,0,171.087,67.7a20.572,20.572,0,0,0,1.246-7.948Z" transform="translate(-83.66 -25.498)" fill="#fff"/>
  <path id="Path_4406" data-name="Path 4406" d="M235.744,55.962V51.948c.081-.047.161-.1.237-.144-.081-.081-.161-.161-.237-.242V46.149l.17-.055c-.055-.042-.114-.085-.17-.131,0-.267-.013-.534-.017-.8a.49.49,0,0,0,.157-.03c.051-.131.106-.263.157-.394.072-.348.148-.7.22-1.047.407.386.844.742,1.217,1.157q10.562,11.884,21.1,23.777c.195.22.386.445.78.9,0-.627,0-.958,0-1.293q-.153-8.635-.314-17.27c-.021-1.166-.081-2.327-.131-3.489-.085-1.92-.615-2.48-2.505-2.654-.377-.034-.759-.055-1.136-.085-.017-.1-.034-.2-.051-.309a2.155,2.155,0,0,1,.687-.254q3.853-.025,7.7,0a2.96,2.96,0,0,1,.678.208c-.254.187-.377.348-.534.377-2.1.411-2.251.568-2.387,2.6-.017.263-.055.521-.085.784-.1-.072-.2-.14-.377-.263,0,1.738-.013,3.412.017,5.087,0,.2.237.394.36.589-.013.933-.021,1.865-.034,2.8a3.522,3.522,0,0,0-.331,1.017c-.021,4.328-.017,8.656-.013,12.984a4.574,4.574,0,0,0,.047.462c.144-.136.216-.2.288-.267,0,.733,0,1.467,0,2.2v.64a.08.08,0,0,1,0,.123c-.148.136-.293.271-.441.4.148.076.3.148.445.225-.038.407-.076.81-.11,1.217l-.365.174c-8.08-8.02-15.528-16.63-23.163-25.405,0,1.111-.021,2.005,0,2.9.153,5.884.3,11.768.492,17.652.042,1.242.034,2.56,1.149,3.48-.411.3-.818.593-1.229.886-.119-.025-.242-.055-.36-.081-.335-.547-.67-.56-1.013-.008-.326.017-.657.034-.983.055-.021-.165-.042-.331-.089-.738-.178.424-.254.6-.331.78-.195,0-.394,0-.589.008V74.22c.059-.03.119-.055.178-.085.678.051.644-.382.572-.839l0,.013.093-.025c-.017-.047-.038-.093-.055-.144.008-.068.017-.136.025-.2a3.5,3.5,0,0,0,.365-1.039c.038-3.2.038-6.393.047-9.589q-.057-1.38-.119-2.76v-3.6Z" transform="translate(-135.179 -25.169)" fill="#fff"/>
  <path id="Path_4407" data-name="Path 4407" d="M23.567,51.125c.017,1.594.03,3.188.047,4.782q.1,9.22.195,18.44a9.234,9.234,0,0,0,.161,1.484,2.421,2.421,0,0,0,2.319,2.332c1.017.153,2.06.144,3.078.293A3.4,3.4,0,0,1,30.375,79c-.343.2-.691.581-1.034.581-2.06,0-4.125-.076-6.185-.127-.059-.093-.123-.182-.182-.276l-.208.246c-.14-.008-.276-.013-.415-.021h-.763l-.458-.013c-.119-.008-.237-.013-.356-.021-1.518-.034-3.031-.068-4.549-.089-.025,0-.055.114-.081.174-1.429.055-2.861.119-4.29.165a1.054,1.054,0,0,1-.581-.114c-.191-.136-.441-.369-.432-.555,0-.161.309-.415.513-.449.623-.106,1.263-.1,1.886-.187,1.556-.22,2.1-.627,2.276-2.166.254-2.272.42-4.566.462-6.855.072-3.79.021-7.584.021-11.378,0-.191-.03-.382-.055-.733A40.3,40.3,0,0,0,7.84,65.157,32.9,32.9,0,0,1,23.359,50.57c.064.187.131.373.2.56Z" transform="translate(-4.517 -29.133)" fill="#fff"/>
  <path id="Path_4408" data-name="Path 4408" d="M97.2,75.481l-.5-.165c.008-.059.017-.114.025-.17-.017.055-.03.114-.047.17l-.259-.106c-.013-.216-.025-.432-.034-.606-.288.068-.534.123-.776.182a17.75,17.75,0,0,1-2.31-2.158c-2.247-2.976-4.421-6.007-6.566-9.055a1.981,1.981,0,0,0-1.9-.967c-1.327.064-2.662.017-4.044.017A1.713,1.713,0,0,0,80.7,63c.025,3,.051,5.99.1,8.983a5.263,5.263,0,0,0,.246,1.67,1.993,1.993,0,0,0,.848,1.132,15.884,15.884,0,0,0,2.56.606c-.119.106-.254.326-.39.326-3.082.021-6.164.017-9.275-.187.187-.064.373-.131.564-.187a2.494,2.494,0,0,0,1.916-2.649c.047-2.128.195-4.252.208-6.38.03-4.794.013-9.589,0-14.383,0-1.331-.038-2.662-.085-3.989-.059-1.772-.61-2.323-2.421-2.505a6.313,6.313,0,0,1-.869-.208c0-.1.008-.2.013-.309a6.61,6.61,0,0,1,.9-.127c3.4.008,6.8-.008,10.2.064a12.862,12.862,0,0,1,3.061.445c4.3,1.166,6.376,5.261,5.028,9.78a14.148,14.148,0,0,1-3.6,5.8c-.229.237-.5.437-.882.776,2.9,3.616,5.7,7.164,8.58,10.644a17.264,17.264,0,0,0,2.429,2.052,1.091,1.091,0,0,1-1.344,1.06,7.436,7.436,0,0,0-1.3.068ZM83.227,46.151l-1.691.127c-.589.047-.869.305-.869.954.021,4.222-.008,8.444.038,12.667a1.243,1.243,0,0,0,.716.954,27.362,27.362,0,0,0,4.544.411,3.888,3.888,0,0,0,3.459-2.488,10.5,10.5,0,0,0,.916-5.532c-.343-4.549-2.9-7.071-7.117-7.092Z" transform="translate(-42.688 -25.803)" fill="#fff"/>
  <path id="Path_4409" data-name="Path 4409" d="M622.159,70.834a.355.355,0,0,1,.047.089c.712,2.573,1.047,2.844,3.845,2.857a33.1,33.1,0,0,0,3.489-.178,2.862,2.862,0,0,0,2.632-2.573c.072-.4.2-.8.309-1.2l.28-.013a1.742,1.742,0,0,1,.182.632c-.157,1.348-.28,2.713-.568,4.036a1.539,1.539,0,0,1-1.06.928,21.3,21.3,0,0,1-3.489.136c-2.365-.072-4.727-.25-7.092-.309-1.2-.03-2.395.11-3.595.148a10.412,10.412,0,0,1-1.259-.144c.356-.276.462-.415.589-.449,1.831-.471,2.2-.89,2.251-2.777.085-3.294.161-6.588.186-9.877.034-4,.021-7.995,0-11.992,0-1.094-.1-2.192-.182-3.281a1.7,1.7,0,0,0-1.653-1.679,3.311,3.311,0,0,1-1.492-.551c5.422-.284,10.835.335,16.427-.5-.195,1.814-.386,3.608-.576,5.4-.136,0-.267,0-.4.008a10.544,10.544,0,0,1-.259-1.3,1.675,1.675,0,0,0-1.5-1.738c-2.115-.225-4.243-.331-6.371-.424-.182-.008-.555.462-.56.716-.038,3.531-.017,7.062-.03,10.594,0,.619.271.822.852.8,2-.072,4.006-.055,6-.225a8.145,8.145,0,0,0,2.187-.928c-.182,2-.356,3.955-.534,5.909l-.356.017c-.047-.284-.1-.568-.136-.856-.22-1.543-.666-2.086-2.2-2.238-1.721-.17-3.463-.187-5.2-.225-.242,0-.487.25-.733.382-.008.14-.017.276-.026.415,0,.11-.013.22-.021.331-.059.076-.123.153-.182.229l.11.059c.025-.089.055-.182.08-.271q.038,1.7.076,3.408c-.1.136-.288.267-.288.4q-.032,2.766,0,5.528a2.434,2.434,0,0,0,.225.712Zm-.085-8.614c-.013-.025-.03-.051-.042-.081-.017.021-.051.047-.051.068s.025.051.038.081l.055-.068Z" transform="translate(-354.628 -25.429)" fill="#91b9ce"/>
  <path id="Path_4410" data-name="Path 4410" d="M323.57,67.924a6.194,6.194,0,0,1,.153.911c.055,3.328,2.416,4.956,5.261,5.172,2.709.2,4.655-.9,5.613-2.98a6.378,6.378,0,0,0-1.344-7.194c-1.513-1.543-3.158-2.963-4.765-4.409-2.056-1.848-3.921-3.8-4.544-6.638a7.347,7.347,0,0,1,7.245-9.267,44.857,44.857,0,0,1,5.748.589c.161.021.424.271.424.415-.021,1.7-.085,3.4-.136,5.1-.136.017-.276.034-.411.047a4.914,4.914,0,0,1-.229-.708,4.232,4.232,0,0,0-4.4-3.917c-1.674-.1-3.285-.008-4.519,1.352a5.137,5.137,0,0,0,.174,6.986c1.488,1.518,3.2,2.811,4.731,4.29a30.052,30.052,0,0,1,3.985,4.3,8.586,8.586,0,0,1,.339,9.368c-1.6,3.014-4.4,4.095-7.652,4.269a12.175,12.175,0,0,1-5.375-.916c-.61-.254-1.043-.615-1.022-1.306q.076-2.537.208-5.07c.008-.136.157-.267.237-.4.093,0,.191,0,.284,0Z" transform="translate(-185.989 -25.07)" fill="#91b9ce"/>
  <path id="Path_4411" data-name="Path 4411" d="M21.36,25.966c-.369.157-.738.309-1.106.466a3.914,3.914,0,0,1-.284-.983c-.025-4.392-.021-8.783-.042-13.175a13.593,13.593,0,0,0-.17-2.077c-.3-1.992-1.166-2.751-3.179-2.866a7.878,7.878,0,0,1-1.386-.114.73.73,0,0,1-.432-.547c0-.174.284-.424.488-.488a3.357,3.357,0,0,1,.992-.055c2.768.055,5.532.161,8.3.165,2.365,0,4.731-.131,7.1-.14.365,0,.733.335,1.1.517-.365.216-.729.437-1.1.64-.076.042-.195.008-.3.013-2.4.1-2.917.509-3.578,2.806-.136.466-.271.933-.4,1.4v1q0,3.6,0,7.2c-.1.093-.2.187-.293.276l.7.114a.974.974,0,0,1,.191-.021c.174.212.348.428.449.555-.428.386-.822.742-1.217,1.1v-.008a1.557,1.557,0,0,0-1.823,1.191l-.055.025h-.059c-.22.131-.437.267-.657.4h0c-.924-.119-1.3.5-1.607,1.2h0a1.5,1.5,0,0,0-1.611,1.42Z" transform="translate(-8.503 -3.524)" fill="#8eb9cf"/>
  <path id="Path_4412" data-name="Path 4412" d="M396.608,44.416c.348-.072.691-.144,1.051-.216v5.519l-.335.051a4.434,4.434,0,0,1-.28-.839c-.191-1.395-.721-2.111-2.081-2.251-2.505-.259-5.028-.373-7.55-.551,0,8.385-.008,16.562.017,24.74a13.5,13.5,0,0,0,.335,2.56,1.462,1.462,0,0,0,1.5,1.217c.615.042,1.225.153,1.84.237.013.1.025.2.038.3a3.7,3.7,0,0,1-.886.246q-4.159.025-8.313,0a3.406,3.406,0,0,1-.75-.165V75a2.548,2.548,0,0,1,.678-.254,1.82,1.82,0,0,0,1.84-1.946c.11-1.424.254-2.849.259-4.277.025-7.156.009-14.316.009-21.471,0-.2-.021-.394-.042-.725-1.759,0-3.51-.013-5.261,0a8.118,8.118,0,0,0-1.789.148c-.852.2-1.679.513-2.514.78a1.581,1.581,0,0,1-.2-.017c.208-.763.653-1.357,1.484-1.348,2.247.013,4.489.1,6.736.161h2.005q0,9.532,0,19.063c0,3.209.259,6.443-.793,9.636h4.421c-.339-.394-.75-.653-.788-.958a39.472,39.472,0,0,1-.411-4.68c-.042-7.02-.017-14.04-.021-21.056,0-.3.11-.7-.042-.877-.437-.534-.03-.8.246-1.123h6.617c1.166.216,2.332.432,3.535.653a2.118,2.118,0,0,0-.547-2.289Z" transform="translate(-215.555 -25.463)" fill="#9bb9c7"/>
  <path id="Path_4413" data-name="Path 4413" d="M44.044,37.108c.394-.356.793-.716,1.217-1.1-.1-.127-.276-.339-.449-.555a52.532,52.532,0,0,1,6.74-2.077,66.521,66.521,0,0,1,8.419-.593c-2.9.5-5.837.818-8.677,1.539a52.619,52.619,0,0,0-6.232,2.408c-.339.131-.682.25-1.022.377Z" transform="translate(-25.371 -18.884)" fill="#9dbbc9"/>
  <path id="Path_4414" data-name="Path 4414" d="M372.66,45.96a4.8,4.8,0,0,1,.025-.5c.237-1.556.25-1.56,1.721-1.31a9.5,9.5,0,0,0,1.577.2q9.786.006,19.572-.013c-.437.835-1.212.229-1.8.42-.95,0-1.9-.03-2.849.017-.259.013-.509.246-.763.382a24.605,24.605,0,0,0-2.878-.322,28.936,28.936,0,0,0-3.133.318c-.53-.844-1.352-.191-2.009-.394h-6.414a3.736,3.736,0,0,1-1.335-.178c-.844-.475-1.017.089-1.267.644a7.607,7.607,0,0,1-.437.733Z" transform="translate(-214.685 -25.367)" fill="#9bb9c7"/>
  <path id="Path_4415" data-name="Path 4415" d="M381.508,45.266h.6c.042.216.089.437.11.56-.276.242-.492.437-.712.632-2.247-.059-4.489-.148-6.736-.161-.831,0-1.276.585-1.484,1.348-.907.059-.483-.67-.632-1.056a.155.155,0,0,1,0-.123,7.113,7.113,0,0,0,.437-.733c.254-.555.424-1.119,1.267-.644a3.75,3.75,0,0,0,1.335.178c.191.131.377.377.572.382,1.556.03,3.116.03,4.671,0,.2,0,.382-.246.572-.377Z" transform="translate(-214.673 -25.872)" fill="#8bb9d2"/>
  <path id="Path_4416" data-name="Path 4416" d="M296.923,87.767c-.072.068-.144.136-.288.267a4.583,4.583,0,0,1-.047-.462c0-4.328-.008-8.656.013-12.984a3.522,3.522,0,0,1,.331-1.017q0,7.1-.013,14.2Z" transform="translate(-170.859 -42.383)" fill="#fff"/>
  <path id="Path_4417" data-name="Path 4417" d="M421.055,45.155c.589-.191,1.365.411,1.8-.42a.534.534,0,0,1,.182-.017,2.118,2.118,0,0,1,.547,2.289c-1.2-.225-2.37-.437-3.535-.653l1-1.2Z" transform="translate(-241.985 -25.761)" fill="#8bb9d2"/>
  <path id="Path_4418" data-name="Path 4418" d="M128.59,115.658a8.339,8.339,0,0,1,1.3-.068,1.091,1.091,0,0,0,1.344-1.06c1.293.339,2.582.674,3.858,1.009-.386.526-4.434.627-6.494.119Z" transform="translate(-74.079 -65.979)" fill="#fff"/>
  <path id="Path_4419" data-name="Path 4419" d="M236.951,87.63c-.009,3.2-.009,6.393-.047,9.589a3.385,3.385,0,0,1-.365,1.039c.055-3.078.106-6.155.17-9.229.009-.458.072-.916.11-1.373l.064-.025Z" transform="translate(-136.268 -50.483)" fill="#fff"/>
  <path id="Path_4420" data-name="Path 4420" d="M182.3,44.165c-.844-.081-1.691-.212-2.535-.229-1.6-.034-3.192,0-4.79-.013a6.342,6.342,0,0,1-.92-.136,16.148,16.148,0,0,1,8.245.382Z" transform="translate(-100.268 -25.017)" fill="#fff"/>
  <path id="Path_4421" data-name="Path 4421" d="M242.59,116.466c.411-.3.818-.593,1.229-.886.865.157,1.73.309,2.59.466,0,.119.008.237.013.356A14.85,14.85,0,0,1,242.59,116.466Z" transform="translate(-139.753 -66.584)" fill="#fff"/>
  <path id="Path_4422" data-name="Path 4422" d="M537.823,116.12c.068-.2.131-.407.2-.61l2.772.471v.394a6.81,6.81,0,0,1-2.984.021c0-.089,0-.178.008-.271h0Z" transform="translate(-309.826 -66.544)" fill="#a3bec8"/>
  <path id="Path_4423" data-name="Path 4423" d="M296.964,59.266c-.127-.195-.36-.39-.36-.589-.03-1.674-.017-3.345-.017-5.087.178.123.276.195.377.263Z" transform="translate(-170.858 -30.873)" fill="#fff"/>
  <path id="Path_4424" data-name="Path 4424" d="M371.9,48.864c.148.39-.271,1.119.632,1.056a1.576,1.576,0,0,0,.2.017q-.515,1.03-1.03,2.056l-.309-.106a4.874,4.874,0,0,1,.5-3.027Z" transform="translate(-213.922 -28.148)" fill="#a1bac3"/>
  <path id="Path_4425" data-name="Path 4425" d="M44.464,17.959v-1c.136-.466.271-.933.4-1.4-.017,2.887-.03,5.769-.055,8.656a4.019,4.019,0,0,1-.14.763c-.008-1.992,0-3.985-.03-5.981a5.929,5.929,0,0,0-.182-1.039Z" transform="translate(-25.613 -8.964)" fill="#9dbbc9"/>
  <path id="Path_4426" data-name="Path 4426" d="M524.964,115.83c.348.267.7.53,1.047.8-.827.025-1.653.076-2.476.059-.225,0-.445-.233-.666-.36a2.716,2.716,0,0,1,.712-.369,11.547,11.547,0,0,1,1.382-.123Z" transform="translate(-301.219 -66.728)" fill="#a3bec8"/>
  <path id="Path_4427" data-name="Path 4427" d="M468.33,118.72h0Z" transform="translate(-269.799 -68.393)" fill="#a3bec8"/>
  <path id="Path_4428" data-name="Path 4428" d="M630.777,98.083a2.718,2.718,0,0,1-.225-.712q-.025-2.766,0-5.528c0-.136.191-.271.288-.4q-.038,3.319-.068,6.647Z" transform="translate(-363.246 -52.677)" fill="#8ab0c3"/>
  <path id="Path_4429" data-name="Path 4429" d="M534.852,75.052c-.11-.178-.309-.352-.309-.53-.021-1.763-.013-3.527,0-5.29,0-.119.1-.233.157-.352.013,1.183.026,2.37.038,3.552l.089.788c.009.61.017,1.221.025,1.827Z" transform="translate(-307.936 -39.681)" fill="#97b1bc"/>
  <path id="Path_4430" data-name="Path 4430" d="M27.45,118.454c.025-.059.055-.174.081-.174,1.518.025,3.031.059,4.549.089-1.543.025-3.086.055-4.629.081Z" transform="translate(-15.814 -68.14)" fill="#fff"/>
  <path id="Path_4431" data-name="Path 4431" d="M44.464,21.22a6.352,6.352,0,0,1,.182,1.039c.025,1.992.021,3.985.03,5.981,0,.123,0,.25,0,.373-.072-.064-.14-.131-.212-.2q0-3.6,0-7.2Z" transform="translate(-25.613 -12.225)" fill="#91abb7"/>
  <path id="Path_4432" data-name="Path 4432" d="M237.23,64.15v0Z" transform="translate(-136.665 -36.956)" fill="#fff"/>
  <path id="Path_4433" data-name="Path 4433" d="M232.341,115.72v.839c-.4,0-.81.008-1.212.017-.161-.11-.318-.22-.479-.326.229-.051.454-.1.683-.148l.216-.127c.263-.085.53-.165.793-.25Z" transform="translate(-132.875 -66.665)" fill="#fff"/>
  <path id="Path_4434" data-name="Path 4434" d="M237.331,83.88h-.068l-.064.021c0-.928.008-1.852.008-2.781q.057,1.38.119,2.76Z" transform="translate(-136.648 -46.732)" fill="#fff"/>
  <path id="Path_4435" data-name="Path 4435" d="M237.23,55.66v0Z" transform="translate(-136.665 -32.065)" fill="#fff"/>
  <path id="Path_4436" data-name="Path 4436" d="M30.33,51.01a1.5,1.5,0,0,1,1.611-1.42Z" transform="translate(-17.473 -28.568)" fill="#9dbbc9"/>
  <path id="Path_4437" data-name="Path 4437" d="M39.74,44.137a1.561,1.561,0,0,1,1.823-1.191C40.957,43.344,40.346,43.738,39.74,44.137Z" transform="translate(-22.894 -24.73)" fill="#9dbbc9"/>
  <path id="Path_4438" data-name="Path 4438" d="M34.13,47.944c.309-.7.678-1.318,1.607-1.2Q34.935,47.346,34.13,47.944Z" transform="translate(-19.662 -26.922)" fill="#9dbbc9"/>
  <path id="Path_4439" data-name="Path 4439" d="M166.629,45.7c-.3.822-.95.822-1.649.687Z" transform="translate(-95.043 -26.327)" fill="#fff"/>
  <path id="Path_4440" data-name="Path 4440" d="M195.373,45.812c-.661.369-1.1.085-1.433-.492Z" transform="translate(-111.726 -26.108)" fill="#fff"/>
  <path id="Path_4441" data-name="Path 4441" d="M237.346,45.141a.49.49,0,0,1-.157.03q-.013-1.221.534-1.471c-.072.348-.148.7-.22,1.047C237.452,44.878,237.4,45.01,237.346,45.141Z" transform="translate(-136.642 -25.175)" fill="#fff"/>
  <path id="Path_4442" data-name="Path 4442" d="M239.34,116.906c.343-.551.682-.538,1.013.008C240.014,116.915,239.675,116.91,239.34,116.906Z" transform="translate(-137.881 -67.113)" fill="#fff"/>
  <path id="Path_4443" data-name="Path 4443" d="M230.214,116.81c.161.11.318.22.479.326a6.192,6.192,0,0,1-.746-.1c-.042-.008-.034-.22-.047-.335.1.038.208.072.309.11Z" transform="translate(-132.443 -67.229)" fill="#282526"/>
  <path id="Path_4444" data-name="Path 4444" d="M124.85,115.3c.246-.055.487-.114.776-.182.008.174.021.39.034.606C125.388,115.586,125.121,115.442,124.85,115.3Z" transform="translate(-71.925 -66.319)" fill="#fff"/>
  <path id="Path_4445" data-name="Path 4445" d="M170.512,44.81c-.293.085-.589.165-.882.25C169.923,44.975,170.219,44.895,170.512,44.81Z" transform="translate(-97.722 -25.814)" fill="#fff"/>
  <path id="Path_4446" data-name="Path 4446" d="M235.632,113.55c.072.458.1.89-.572.839Z" transform="translate(-135.415 -65.415)" fill="#fff"/>
  <path id="Path_4447" data-name="Path 4447" d="M44.052,38.2c.072.064.14.131.212.195s.131.131.2.195l-.7-.114C43.858,38.382,43.955,38.289,44.052,38.2Z" transform="translate(-25.21 -22.007)" fill="#9dbbc9"/>
  <path id="Path_4448" data-name="Path 4448" d="M199.5,47.517l-.81-.407Z" transform="translate(-114.463 -27.139)" fill="#fff"/>
  <path id="Path_4449" data-name="Path 4449" d="M236.03,116.62c.076-.178.153-.356.331-.78.051.407.072.572.089.738C236.31,116.59,236.17,116.6,236.03,116.62Z" transform="translate(-135.974 -66.734)" fill="#fff"/>
  <path id="Path_4450" data-name="Path 4450" d="M37.92,46.228c.216-.131.437-.267.657-.4C38.361,45.961,38.14,46.1,37.92,46.228Z" transform="translate(-21.845 -26.402)" fill="#9dbbc9"/>
  <path id="Path_4451" data-name="Path 4451" d="M172.759,44.36c-.208.047-.411.1-.619.144C172.348,44.458,172.551,44.407,172.759,44.36Z" transform="translate(-99.168 -25.555)" fill="#fff"/>
  <path id="Path_4452" data-name="Path 4452" d="M297.37,112.89v0Z" transform="translate(-171.311 -64.666)" fill="#fff"/>
  <path id="Path_4453" data-name="Path 4453" d="M201.26,48.452c-.225-.127-.449-.254-.67-.382C200.815,48.2,201.039,48.324,201.26,48.452Z" transform="translate(-115.557 -27.693)" fill="#fff"/>
  <path id="Path_4454" data-name="Path 4454" d="M296.765,114.687c-.148-.076-.3-.148-.445-.225.148-.136.292-.271.441-.4v.632Z" transform="translate(-170.706 -65.709)" fill="#fff"/>
  <path id="Path_4455" data-name="Path 4455" d="M535.109,78.058l-.089-.788Z" transform="translate(-308.218 -44.514)" fill="#90b9ce"/>
  <path id="Path_4456" data-name="Path 4456" d="M41.06,118.58h0Z" transform="translate(-23.654 -68.312)" fill="#fff"/>
  <path id="Path_4457" data-name="Path 4457" d="M43.06,118.306l.208-.246.182.276-.39-.025Z" transform="translate(-24.806 -68.013)" fill="#fff"/>
  <path id="Path_4458" data-name="Path 4458" d="M237.23,62.26c.081.081.161.161.237.242-.081.047-.161.1-.237.144Z" transform="translate(-136.665 -35.867)" fill="#fff"/>
  <path id="Path_4459" data-name="Path 4459" d="M44.675,51.12c-.064-.187-.131-.373-.195-.56C44.544,50.747,44.611,50.933,44.675,51.12Z" transform="translate(-25.624 -29.127)" fill="#0b0809"/>
  <path id="Path_4460" data-name="Path 4460" d="M631.11,82.025c.008-.14.017-.276.025-.415C631.127,81.75,631.118,81.886,631.11,82.025Z" transform="translate(-363.575 -47.014)" fill="#8ab0c3"/>
  <path id="Path_4461" data-name="Path 4461" d="M237.23,49.06c.055.042.114.085.17.131l-.17.055V49.06Z" transform="translate(-136.665 -28.263)" fill="#fff"/>
  <path id="Path_4462" data-name="Path 4462" d="M39.2,118.54l.458.013Z" transform="translate(-22.583 -68.289)" fill="#fff"/>
  <path id="Path_4463" data-name="Path 4463" d="M127.38,116.58c.013-.055.03-.114.047-.17-.008.055-.017.114-.025.17Z" transform="translate(-73.382 -67.062)" fill="#fff"/>
  <path id="Path_4464" data-name="Path 4464" d="M236.421,113.18c.017.047.038.093.055.144l-.093.025a.137.137,0,0,1,.038-.165Z" transform="translate(-136.17 -65.202)" fill="#fff"/>
  <path id="Path_4465" data-name="Path 4465" d="M232.466,116.31l-.216.127Z" transform="translate(-133.796 -67.005)" fill="#282526"/>
  <path id="Path_4466" data-name="Path 4466" d="M536.48,117.393c.021-.051.047-.1.068-.153.034.042.072.085.106.131A.78.78,0,0,1,536.48,117.393Z" transform="translate(-309.059 -67.54)" fill="#a3bec8"/>
  <path id="Path_4467" data-name="Path 4467" d="M169.283,45.5c.034.042.068.085-.013-.017.076.1.042.059.008.013h0Z" transform="translate(-97.514 -26.2)" fill="#fff"/>
  <path id="Path_4468" data-name="Path 4468" d="M537.721,116.9c-.026-.017-.051-.03-.081-.047.03.013.055.03.085.042h0Z" transform="translate(-309.728 -67.316)" fill="#a3bec8"/>
  <path id="Path_4469" data-name="Path 4469" d="M237.56,46.564c.051-.131.106-.263.157-.394C237.666,46.3,237.611,46.433,237.56,46.564Z" transform="translate(-136.855 -26.598)" fill="#fff"/>
  <path id="Path_4470" data-name="Path 4470" d="M630.773,86.681l-.055.068c-.013-.025-.043-.055-.038-.081s.034-.047.051-.068C630.743,86.625,630.76,86.651,630.773,86.681Z" transform="translate(-363.326 -49.889)" fill="#8ab0c3"/>
  <path id="Path_4471" data-name="Path 4471" d="M630.821,83.377c-.026.089-.055.182-.081.271l-.11-.059c.059-.076.123-.153.182-.229l0,.013Z" transform="translate(-363.298 -48.023)" fill="#8ab0c3"/>
  <path id="Path_4472" data-name="Path 4472" d="M44.47,18.86v0Z" transform="translate(-25.619 -10.865)" fill="#91abb7"/>
  <path id="Path_4473" data-name="Path 4473" d="M399.824,48.574c-.276.326-.678.589-.246,1.123.148.182.042.581.042.878,0,7.02-.021,14.04.021,21.056a39.467,39.467,0,0,0,.411,4.68c.038.305.449.564.788.958H396.42c1.051-3.192.784-6.427.793-9.636.013-6.354,0-12.709,0-19.063h2.611Z" transform="translate(-228.372 -27.981)" fill="#8bb8d1"/>
  <path id="Path_4474" data-name="Path 4474" d="M400.2,47.059h-3.01c-.034-.237-.072-.475-.119-.8h1.123a29.045,29.045,0,0,1,3.133-.318,23.727,23.727,0,0,1,2.878.322c.572-.03,1.136-.051,1,.8H400.2Z" transform="translate(-228.747 -26.465)" fill="#89b9d3"/>
  <path id="Path_4475" data-name="Path 4475" d="M414.895,46.927c.131-.848-.432-.831-1-.8.254-.131.5-.369.763-.382.95-.047,1.9-.017,2.849-.017l-1,1.2H414.89Z" transform="translate(-238.437 -26.338)" fill="#8eb8ce"/>
  <path id="Path_4476" data-name="Path 4476" d="M396.161,46.081h-1.123c.051.326.085.564.119.8H393.55c.22-.195.441-.39.712-.632-.025-.123-.068-.339-.11-.56.657.2,1.479-.449,2.009.394Z" transform="translate(-226.719 -26.292)" fill="#8eb8ce"/>
  <path id="Path_4477" data-name="Path 4477" d="M385.656,45.744c-.191.131-.382.373-.572.377-1.556.03-3.116.03-4.671,0-.191,0-.382-.25-.572-.382h5.816Z" transform="translate(-218.821 -26.35)" fill="#8eb8ce"/>
  <g id="Group_2468" data-name="Group 2468" transform="translate(136.771 53.6)">
    <path id="Path_4478" data-name="Path 4478" d="M322.64,137.18V126.79h3.213a3.7,3.7,0,0,1,2.471.725,2.644,2.644,0,0,1,.848,2.124,2.565,2.565,0,0,1-.352,1.365,2.062,2.062,0,0,1-.958.835,1.813,1.813,0,0,1,1.077.8,2.77,2.77,0,0,1,.377,1.488,2.967,2.967,0,0,1-.831,2.285,3.4,3.4,0,0,1-2.408.772H322.64Zm2.1-6.045h1.094a1.109,1.109,0,0,0,1.234-1.276,1.462,1.462,0,0,0-.284-1.013,1.223,1.223,0,0,0-.928-.305h-1.115v2.6Zm0,1.526v2.777h1.344a1.052,1.052,0,0,0,.856-.352,1.5,1.5,0,0,0,.292-.992c0-.933-.339-1.412-1.013-1.433Z" transform="translate(-322.64 -126.642)" fill="#fff"/>
    <path id="Path_4479" data-name="Path 4479" d="M350.762,126.79v7.194a3.353,3.353,0,0,1-.89,2.48,3.454,3.454,0,0,1-2.518.861,3.514,3.514,0,0,1-2.552-.869,3.379,3.379,0,0,1-.882-2.518v-7.143h2.111v7.151a2.136,2.136,0,0,0,.284,1.263,1.228,1.228,0,0,0,1.034.377,1.2,1.2,0,0,0,1.026-.373,2.124,2.124,0,0,0,.284-1.229V126.8h2.1Z" transform="translate(-334.899 -126.642)" fill="#fff"/>
    <path id="Path_4480" data-name="Path 4480" d="M369.921,134.264a1.3,1.3,0,0,0-.326-.958,3.739,3.739,0,0,0-1.183-.674,5.468,5.468,0,0,1-2.247-1.386,2.785,2.785,0,0,1-.687-1.882,2.628,2.628,0,0,1,.933-2.107,3.518,3.518,0,0,1,2.365-.8,3.563,3.563,0,0,1,1.7.4,2.794,2.794,0,0,1,1.153,1.14,3.393,3.393,0,0,1,.4,1.67h-2.09a1.717,1.717,0,0,0-.309-1.111,1.087,1.087,0,0,0-.895-.382,1.1,1.1,0,0,0-.856.326,1.232,1.232,0,0,0-.305.873,1.085,1.085,0,0,0,.343.776,3.943,3.943,0,0,0,1.212.716,5.16,5.16,0,0,1,2.208,1.348,3.016,3.016,0,0,1,.687,2.035,2.681,2.681,0,0,1-.865,2.12,3.419,3.419,0,0,1-2.348.763,4.069,4.069,0,0,1-1.835-.415,3.126,3.126,0,0,1-1.3-1.183,3.416,3.416,0,0,1-.466-1.819h2.107a1.987,1.987,0,0,0,.352,1.306,1.431,1.431,0,0,0,1.14.407c.733,0,1.1-.39,1.1-1.162Z" transform="translate(-347.17 -126.452)" fill="#fff"/>
    <path id="Path_4481" data-name="Path 4481" d="M389.028,137.18h-2.1V126.79h2.1Z" transform="translate(-359.677 -126.642)" fill="#fff"/>
    <path id="Path_4482" data-name="Path 4482" d="M405.436,137.18h-2.1l-3.069-6.817v6.817h-2.1V126.79h2.1l3.078,6.821V126.79h2.09Z" transform="translate(-366.152 -126.642)" fill="#fff"/>
    <path id="Path_4483" data-name="Path 4483" d="M426.787,132.682h-3.268v2.755h3.866v1.742H421.42V126.79h5.952v1.746h-3.853v2.454h3.268Z" transform="translate(-379.546 -126.642)" fill="#fff"/>
    <path id="Path_4484" data-name="Path 4484" d="M444.441,134.264a1.3,1.3,0,0,0-.326-.958,3.738,3.738,0,0,0-1.183-.674,5.468,5.468,0,0,1-2.247-1.386,2.785,2.785,0,0,1-.687-1.882,2.628,2.628,0,0,1,.933-2.107,3.518,3.518,0,0,1,2.365-.8,3.562,3.562,0,0,1,1.7.4,2.794,2.794,0,0,1,1.153,1.14,3.393,3.393,0,0,1,.4,1.67h-2.09a1.717,1.717,0,0,0-.309-1.111,1.087,1.087,0,0,0-.895-.382,1.1,1.1,0,0,0-.856.326,1.232,1.232,0,0,0-.305.873,1.085,1.085,0,0,0,.343.776,3.943,3.943,0,0,0,1.212.716,5.161,5.161,0,0,1,2.209,1.348,3.016,3.016,0,0,1,.687,2.035,2.681,2.681,0,0,1-.865,2.12,3.419,3.419,0,0,1-2.349.763,4.069,4.069,0,0,1-1.836-.415,3.126,3.126,0,0,1-1.3-1.183,3.416,3.416,0,0,1-.466-1.819h2.107a1.987,1.987,0,0,0,.352,1.306,1.431,1.431,0,0,0,1.14.407c.733,0,1.1-.39,1.1-1.162Z" transform="translate(-390.1 -126.452)" fill="#fff"/>
    <path id="Path_4485" data-name="Path 4485" d="M465.2,134.264a1.3,1.3,0,0,0-.326-.958,3.74,3.74,0,0,0-1.183-.674,5.468,5.468,0,0,1-2.247-1.386,2.785,2.785,0,0,1-.687-1.882,2.628,2.628,0,0,1,.933-2.107,3.518,3.518,0,0,1,2.365-.8,3.563,3.563,0,0,1,1.7.4,2.793,2.793,0,0,1,1.153,1.14,3.393,3.393,0,0,1,.4,1.67h-2.09a1.717,1.717,0,0,0-.309-1.111,1.087,1.087,0,0,0-.895-.382,1.1,1.1,0,0,0-.856.326,1.232,1.232,0,0,0-.305.873,1.085,1.085,0,0,0,.343.776,3.943,3.943,0,0,0,1.212.716,5.161,5.161,0,0,1,2.209,1.348,3.016,3.016,0,0,1,.687,2.035,2.681,2.681,0,0,1-.865,2.12,3.419,3.419,0,0,1-2.348.763,4.069,4.069,0,0,1-1.836-.415,3.125,3.125,0,0,1-1.3-1.183,3.414,3.414,0,0,1-.466-1.819h2.107a1.987,1.987,0,0,0,.352,1.306,1.431,1.431,0,0,0,1.14.407c.733,0,1.1-.39,1.1-1.162Z" transform="translate(-402.059 -126.452)" fill="#fff"/>
    <path id="Path_4486" data-name="Path 4486" d="M498.856,133.531a3.886,3.886,0,0,1-1,2.692,3.526,3.526,0,0,1-2.6.916,3.263,3.263,0,0,1-2.7-1.162,5.12,5.12,0,0,1-.937-3.307v-1.746a5.005,5.005,0,0,1,.971-3.3,3.837,3.837,0,0,1,5.278-.212,4.331,4.331,0,0,1,1,2.726h-2.107a2.779,2.779,0,0,0-.339-1.518,1.335,1.335,0,0,0-1.14-.42,1.275,1.275,0,0,0-1.191.589,4.153,4.153,0,0,0-.373,1.937v1.963a4.5,4.5,0,0,0,.348,2.128,1.272,1.272,0,0,0,1.187.577,1.363,1.363,0,0,0,1.14-.4,2.673,2.673,0,0,0,.356-1.458h2.1Z" transform="translate(-419.987 -126.452)" fill="#fff"/>
    <path id="Path_4487" data-name="Path 4487" d="M520.951,132.724a4.856,4.856,0,0,1-.988,3.247,3.41,3.41,0,0,1-2.743,1.157,3.449,3.449,0,0,1-2.747-1.145,4.77,4.77,0,0,1-1.013-3.209V131a5.109,5.109,0,0,1,.992-3.345,3.754,3.754,0,0,1,5.49-.021,5.034,5.034,0,0,1,1.013,3.315v1.776Zm-2.1-1.742a4.248,4.248,0,0,0-.4-2.09,1.474,1.474,0,0,0-2.475-.025,4.085,4.085,0,0,0-.415,2.009v1.848a3.875,3.875,0,0,0,.407,2.009,1.376,1.376,0,0,0,1.255.644,1.331,1.331,0,0,0,1.221-.632,3.77,3.77,0,0,0,.407-1.958v-1.806Z" transform="translate(-432.569 -126.446)" fill="#fff"/>
    <path id="Path_4488" data-name="Path 4488" d="M540.508,135.052h-2.861l-.555,2.128H534.87l3.247-10.39h1.92l3.268,10.39h-2.242Zm-2.4-1.747h1.942l-.971-3.705-.971,3.705Z" transform="translate(-444.903 -126.642)" fill="#fff"/>
    <path id="Path_4489" data-name="Path 4489" d="M565.976,133.531a3.886,3.886,0,0,1-1,2.692,3.526,3.526,0,0,1-2.6.916,3.263,3.263,0,0,1-2.7-1.162,5.12,5.12,0,0,1-.937-3.307v-1.746a5.006,5.006,0,0,1,.971-3.3,3.837,3.837,0,0,1,5.278-.212,4.33,4.33,0,0,1,1,2.726h-2.107a2.777,2.777,0,0,0-.339-1.518,1.335,1.335,0,0,0-1.14-.42,1.275,1.275,0,0,0-1.191.589,4.151,4.151,0,0,0-.373,1.937v1.963a4.494,4.494,0,0,0,.348,2.128,1.272,1.272,0,0,0,1.187.577,1.363,1.363,0,0,0,1.14-.4,2.672,2.672,0,0,0,.356-1.458h2.1Z" transform="translate(-458.654 -126.452)" fill="#fff"/>
    <path id="Path_4490" data-name="Path 4490" d="M588.287,137.18H586.2v-4.447h-3.1v4.447H581V126.79h2.1V131h3.1V126.79h2.09Z" transform="translate(-471.478 -126.642)" fill="#fff"/>
    <path id="Path_4491" data-name="Path 4491" d="M606.618,137.18h-2.1V126.79h2.1Z" transform="translate(-485.027 -126.642)" fill="#fff"/>
    <path id="Path_4492" data-name="Path 4492" d="M623.026,137.18h-2.1l-3.069-6.817v6.817h-2.1V126.79h2.1l3.077,6.821V126.79h2.09Z" transform="translate(-491.503 -126.642)" fill="#fff"/>
    <path id="Path_4493" data-name="Path 4493" d="M645.863,135.8a3.807,3.807,0,0,1-1.488.988,5.452,5.452,0,0,1-1.929.331,3.536,3.536,0,0,1-2.785-1.111,4.812,4.812,0,0,1-1.022-3.23v-1.869a5.145,5.145,0,0,1,.937-3.307,3.324,3.324,0,0,1,2.738-1.162,3.531,3.531,0,0,1,2.552.835,3.966,3.966,0,0,1,1,2.62H643.82a2.344,2.344,0,0,0-.416-1.352,1.318,1.318,0,0,0-1.026-.36,1.342,1.342,0,0,0-1.234.619,3.932,3.932,0,0,0-.4,1.975v1.886a3.85,3.85,0,0,0,.424,2.064,1.538,1.538,0,0,0,1.395.644,1.818,1.818,0,0,0,1-.25l.186-.127v-1.908h-1.471V131.5h3.574v4.29Z" transform="translate(-504.684 -126.44)" fill="#fff"/>
  </g>
</svg>
