<svg id="Layer_1" xmlns="http://www.w3.org/2000/svg" width="233" height="53.318" viewBox="0 0 233 53.318">
  <path id="Path_4402" data-name="Path 4402" d="M0,0H233V44.1H0ZM70.525,16.9h.007c-.225-.109-.447-.222-.672-.334-.162-.074-.323-.148-.482-.222l-1.188-.408-.151-.053a13.393,13.393,0,0,0-6.838-.316l-.158.032c-.172.039-.341.081-.513.12l-.155.039c-.243.07-.489.137-.731.207a.092.092,0,0,0-.12.042l0,0c-.049.025-.1.046-.148.07L58,16.641a8.627,8.627,0,0,0-.872.468,13.256,13.256,0,0,0-6.051,12.246c.362,7.45,5.3,13.033,13.691,12.509a11.694,11.694,0,0,0,7.851-3.516c3.639-3.716,4.644-8.248,3.794-13.23a10.848,10.848,0,0,0-5.337-7.9c-.186-.105-.373-.211-.555-.316ZM83.115,39.93v-.011c-.155.232-.313.464-.471.7-.049.025-.1.046-.148.07-.218.07-.439.137-.657.207L81.66,41l-.566.123c-.084-.032-.172-.06-.257-.091.011.1,0,.271.039.278a5.136,5.136,0,0,0,.619.084c.334,0,.672-.007,1.006-.014.162,0,.327,0,.489-.007.116-.011.232-.021.348-.035.271-.014.545-.028.816-.046.281,0,.563,0,.84.007l.3.067a12.475,12.475,0,0,0,3.178-.053c0-.1-.007-.2-.011-.3-.717-.13-1.434-.257-2.148-.387a3.476,3.476,0,0,1-.953-2.887c-.162-4.88-.281-9.76-.408-14.64-.018-.742,0-1.484,0-2.4,6.332,7.278,12.506,14.419,19.211,21.071l.3-.144c.032-.338.063-.672.091-1.009v-.524a.067.067,0,0,0,0-.1v-.531c0-.608,0-1.216,0-1.821q0-5.886.011-11.775c.011-.773.018-1.547.028-2.32v-4.49c.025-.218.056-.432.07-.65.109-1.688.236-1.818,1.979-2.159.127-.025.232-.162.443-.313a2.456,2.456,0,0,0-.563-.172q-3.2-.016-6.388,0a1.787,1.787,0,0,0-.57.211c.014.084.028.169.042.257.313.025.629.042.942.07,1.568.144,2.008.608,2.078,2.2.042.963.091,1.93.109,2.894q.137,7.162.26,14.324c0,.274,0,.548,0,1.072-.33-.38-.485-.566-.647-.749q-8.749-9.862-17.5-19.72c-.306-.345-.672-.64-1.009-.96q-.454.207-.443,1.22c0,.222.011.443.014.664V28.521c0,.77-.007,1.536-.007,2.306-.032.38-.084.759-.091,1.139-.053,2.553-.095,5.105-.141,7.654-.007.056-.014.113-.021.165a.114.114,0,0,0-.032.137ZM13.332,16.444c.183-.109.362-.222.545-.33h.049l.046-.018c.5-.33,1.009-.657,1.512-.988v.007c.285-.105.57-.2.851-.313a43.642,43.642,0,0,1,5.168-2c2.356-.6,4.792-.865,7.2-1.276a55.126,55.126,0,0,0-6.983.492,42.481,42.481,0,0,0-5.59,1.723.607.607,0,0,0-.158.018c-.056-.053-.109-.109-.165-.162,0-.1,0-.207,0-.309a4,4,0,0,0,.116-.633c.021-2.394.032-4.785.046-7.179.552-1.9.981-2.243,2.967-2.328.084,0,.183.025.246-.011.309-.169.612-.352.914-.531-.306-.151-.608-.429-.914-.429-1.962.007-3.924.12-5.886.116C11,2.3,8.709,2.2,6.413,2.159A2.778,2.778,0,0,0,5.59,2.2c-.169.049-.4.26-.4.4a.6.6,0,0,0,.359.454,6.562,6.562,0,0,0,1.15.095A2.382,2.382,0,0,1,9.331,5.534a11.817,11.817,0,0,1,.141,1.723c.018,3.642.014,7.285.035,10.927A3.068,3.068,0,0,0,9.742,19c.306-.13.612-.257.918-.387L12,17.435h0q.664-.5,1.333-.991h0ZM188.106,27.167c-.011-.981-.021-1.965-.032-2.946V20.993a1.489,1.489,0,0,1,.7.51c3.059,3.484,6.089,7,9.187,10.446,2.528,2.816,5.13,5.566,7.717,8.326.492.524,1.079.963,1.621,1.445.084-.039.165-.081.25-.12a7.681,7.681,0,0,0,.158-1.09c.018-2.429.011-4.862.014-7.292.007-4.834-.025-9.669.046-14.5.028-1.9.376-2.331,1.955-2.475.12-.011.225-.151.376-.257-.9-.39-6.975-.278-7.422.2.369.035.654.067.939.088,1.491.116,2.032.636,2.11,2.113.074,1.4.116,2.809.151,4.216.063,2.4.13,4.8.158,7.2.028,2.226.007,4.451.007,6.842-3.259-3.674-6.406-7.253-9.591-10.8s-6.311-7.162-9.7-10.593a4.239,4.239,0,0,0-.3,1.515c-.021,7.155-.021,14.31-.053,21.464a2.861,2.861,0,0,1-.83,2.493,11.191,11.191,0,0,0-1.146.1,2.309,2.309,0,0,0-.591.306c.183.105.366.292.552.3.686.018,1.368-.028,2.053-.049.728-.014,1.452-.025,2.18-.039a.673.673,0,0,0,.144-.018c.109,0,.214.011.323.014a5.665,5.665,0,0,0,2.479-.018v-.327l-2.3-.39a5.154,5.154,0,0,1-.816-3.284c-.113-2.662-.169-5.327-.246-7.992-.007-.506-.014-1.013-.021-1.515l-.074-.654Zm-57.08-9.985a4.022,4.022,0,0,0-.418,2.51l.257.088q.427-.854.854-1.705c.693-.222,1.378-.482,2.085-.647a6.953,6.953,0,0,1,1.484-.123c1.452-.014,2.9,0,4.363,0,.018.274.035.436.035.6,0,5.935.014,11.873-.007,17.808,0,1.181-.127,2.366-.214,3.548a1.509,1.509,0,0,1-1.526,1.614,2,2,0,0,0-.563.211V41.3a3.292,3.292,0,0,0,.622.137q3.449.016,6.895,0a2.834,2.834,0,0,0,.735-.2c-.011-.084-.021-.165-.032-.25-.506-.067-1.013-.158-1.526-.2a1.212,1.212,0,0,1-1.241-1.009,11.159,11.159,0,0,1-.278-2.124c-.021-6.782-.014-13.564-.014-20.519,2.092.148,4.184.243,6.262.457,1.129.116,1.568.707,1.726,1.867a3.945,3.945,0,0,0,.232.7l.278-.042V15.54c-.3.06-.584.12-.872.179a.434.434,0,0,0-.151.014q-8.116.011-16.233.011a7.875,7.875,0,0,1-1.308-.165c-1.22-.207-1.231-.2-1.427,1.086a3.977,3.977,0,0,0-.021.411.128.128,0,0,0,0,.1ZM221.89,29.038l.021-.345c.2-.113.408-.323.6-.316,1.438.032,2.88.046,4.31.186,1.276.127,1.642.577,1.825,1.856.035.236.074.471.112.71l.3-.014c.148-1.621.292-3.242.443-4.9a6.755,6.755,0,0,1-1.814.77c-1.652.141-3.315.127-4.975.186-.482.018-.71-.148-.707-.664.011-2.929,0-5.857.025-8.786,0-.207.309-.6.464-.594,1.761.074,3.53.162,5.284.352a1.4,1.4,0,0,1,1.241,1.442A9.02,9.02,0,0,0,229.234,20c.113,0,.222,0,.334-.007.158-1.487.316-2.971.478-4.476-4.634.693-9.127.179-13.624.415a2.746,2.746,0,0,0,1.238.457,1.407,1.407,0,0,1,1.371,1.392c.07.907.148,1.814.151,2.721.018,3.315.028,6.631,0,9.946-.021,2.732-.088,5.464-.155,8.192-.039,1.565-.348,1.913-1.867,2.3-.109.028-.193.144-.489.373a8.638,8.638,0,0,0,1.044.12c1-.032,1.99-.148,2.981-.123,1.962.049,3.92.2,5.882.257a17.664,17.664,0,0,0,2.894-.113,1.262,1.262,0,0,0,.879-.77,32.215,32.215,0,0,0,.471-3.347,1.544,1.544,0,0,0-.151-.524l-.232.011c-.088.33-.2.654-.257.991A2.371,2.371,0,0,1,228,39.951a27.448,27.448,0,0,1-2.894.148c-2.32-.011-2.595-.236-3.189-2.37a.373.373,0,0,0-.039-.074q.026-2.758.056-5.513l-.063-2.827V29.3c0-.091.007-.183.011-.274ZM43.9,40.626c.225.116.447.236.672.352l.214.088H44.8l.411.137c1.709.425,5.066.338,5.386-.1-1.055-.274-2.127-.556-3.2-.837a14.556,14.556,0,0,1-2.015-1.7c-2.391-2.887-4.711-5.829-7.116-8.828.32-.281.541-.447.731-.643a11.771,11.771,0,0,0,2.985-4.81c1.118-3.748-.6-7.144-4.17-8.111a10.668,10.668,0,0,0-2.538-.369c-2.82-.056-5.643-.046-8.463-.053a4.985,4.985,0,0,0-.749.105c0,.084-.007.169-.011.257a5.235,5.235,0,0,0,.721.172c1.5.151,1.962.6,2.008,2.078.035,1.1.067,2.2.07,3.308.011,3.976.028,7.953,0,11.929-.011,1.765-.134,3.526-.172,5.291a2.062,2.062,0,0,1-1.589,2.2c-.158.046-.313.1-.468.155,2.581.169,5.137.172,7.693.155.113,0,.225-.183.323-.271a12.81,12.81,0,0,1-2.124-.5,1.642,1.642,0,0,1-.7-.939,4.24,4.24,0,0,1-.2-1.385c-.042-2.482-.063-4.968-.084-7.45a1.421,1.421,0,0,1,.077-.309c1.146,0,2.25.039,3.354-.014a1.643,1.643,0,0,1,1.579.8c1.783,2.528,3.583,5.042,5.446,7.51a14.754,14.754,0,0,0,1.916,1.79ZM15.639,17.773a27.286,27.286,0,0,0-12.872,12.1,33.424,33.424,0,0,1,6.722-6.617c.025.292.046.45.046.608,0,3.147.042,6.293-.018,9.437-.039,1.9-.172,3.8-.383,5.685-.144,1.273-.6,1.61-1.888,1.8-.52.074-1.051.067-1.565.155-.169.028-.422.239-.425.373,0,.155.2.348.359.461a.817.817,0,0,0,.482.095c1.188-.039,2.373-.088,3.558-.137,1.28-.021,2.56-.046,3.839-.067l.3.018.38.011H14.8c.116.007.229.011.345.018l.323.021c1.709.042,3.421.113,5.13.105.288,0,.573-.313.858-.482a2.819,2.819,0,0,0-.837-.45c-.844-.123-1.709-.116-2.553-.243a2,2,0,0,1-1.923-1.934,7.659,7.659,0,0,1-.134-1.231q-.09-7.647-.162-15.294-.021-1.983-.039-3.966c-.053-.155-.109-.309-.162-.464ZM168.79,41.74a11.981,11.981,0,0,0,9.018-6.04,14.948,14.948,0,0,0,1.744-10.628,11.333,11.333,0,0,0-5.643-8.086,12.737,12.737,0,0,0-5.341-1.649c-3.674-.33-7.088.366-9.862,2.943-4.272,3.966-5.439,8.888-4.008,14.419a11.645,11.645,0,0,0,9.964,9.043h4.131Zm-54.682-6.2c-.077,0-.158,0-.236,0-.07.109-.193.218-.2.33-.067,1.4-.13,2.806-.172,4.2-.018.573.341.872.847,1.083a10.1,10.1,0,0,0,4.458.759c2.693-.144,5.021-1.044,6.346-3.54a7.128,7.128,0,0,0-.281-7.77,24.725,24.725,0,0,0-3.3-3.569c-1.266-1.231-2.69-2.3-3.924-3.558a4.264,4.264,0,0,1-.144-5.794c1.02-1.129,2.359-1.2,3.748-1.122a3.51,3.51,0,0,1,3.646,3.249,4.075,4.075,0,0,0,.19.587c.113-.014.229-.028.341-.039.042-1.41.095-2.82.113-4.233,0-.116-.214-.327-.352-.345a37.076,37.076,0,0,0-4.768-.489,6.092,6.092,0,0,0-6.009,7.686c.517,2.352,2.064,3.973,3.769,5.506,1.336,1.2,2.7,2.377,3.952,3.656a5.289,5.289,0,0,1,1.115,5.966,4.371,4.371,0,0,1-4.655,2.472c-2.356-.176-4.317-1.529-4.363-4.289a4.714,4.714,0,0,0-.127-.756Z" fill="none"/>
  <path id="Path_4403" data-name="Path 4403" d="M530.44,57.465c.077,2.665.134,5.33.246,7.992a5.133,5.133,0,0,0,.816,3.284c-.056.169-.109.338-.165.506-.025-.011-.046-.025-.07-.035.021.014.042.025.067.039,0,.074,0,.148-.007.225-.109,0-.214-.011-.323-.018l-.088-.109c-.018.042-.039.084-.056.127-.728.014-1.452.025-2.18.039-.288-.221-.58-.439-.868-.661a2.861,2.861,0,0,0,.83-2.493c.032-7.155.032-14.31.053-21.464a4.226,4.226,0,0,1,.3-1.515c3.382,3.431,6.5,7.046,9.7,10.593s6.332,7.123,9.591,10.8c0-2.391.021-4.616-.007-6.842-.028-2.4-.1-4.8-.158-7.2-.035-1.406-.077-2.813-.151-4.216-.077-1.477-.622-2-2.109-2.113-.285-.021-.57-.053-.939-.088.443-.482,6.518-.594,7.422-.2-.148.105-.257.246-.376.257-1.579.144-1.93.573-1.955,2.475-.07,4.834-.039,9.669-.046,14.5,0,2.429,0,4.862-.014,7.292a7.336,7.336,0,0,1-.158,1.09c-.084.039-.165.081-.25.12-.541-.478-1.129-.918-1.621-1.445-2.588-2.76-5.189-5.509-7.717-8.326-3.1-3.449-6.128-6.961-9.187-10.446a1.489,1.489,0,0,0-.7-.51v3.228c-.046.1-.13.193-.13.292-.011,1.463-.018,2.925,0,4.388,0,.148.169.292.257.439Z" transform="translate(-342.239 -28.128)" fill="#90b9ce"/>
  <path id="Path_4404" data-name="Path 4404" d="M448.885,69.883a11.65,11.65,0,0,1-9.964-9.043c-1.427-5.53-.264-10.453,4.008-14.419,2.774-2.574,6.188-3.273,9.862-2.943a12.772,12.772,0,0,1,5.341,1.649,11.326,11.326,0,0,1,5.643,8.086,14.947,14.947,0,0,1-1.744,10.628,11.963,11.963,0,0,1-9.018,6.04h-4.131Zm-7.359-14.162a14.218,14.218,0,0,0,2.711,9.1,9.059,9.059,0,0,0,7.682,3.889c4.085-.12,6.9-2.3,8.213-6.406a17.3,17.3,0,0,0,.2-9.542c-1.245-5.063-5.337-8.786-10.769-8.041A8.459,8.459,0,0,0,443.742,48,12.113,12.113,0,0,0,441.527,55.721Z" transform="translate(-284.227 -28.143)" fill="#90b9ce"/>
  <path id="Path_4405" data-name="Path 4405" d="M163.538,45.041c.162.074.323.148.482.222l.672.338h-.007c.186.105.373.211.556.316a10.855,10.855,0,0,1,5.337,7.9c.851,4.982-.155,9.514-3.794,13.23a11.686,11.686,0,0,1-7.851,3.516c-8.389.527-13.329-5.056-13.691-12.509A13.253,13.253,0,0,1,151.292,45.8a8.627,8.627,0,0,1,.872-.468c.584.109,1.118.113,1.368-.57.049-.025.1-.046.148-.07.028.035.056.074-.007-.011.067.084.039.049.011.014a.092.092,0,0,1,.12-.042c.243-.07.489-.137.731-.207l.155-.039c.172-.039.341-.081.513-.12l.158-.032a5.12,5.12,0,0,0,.763.113c1.325.011,2.651-.021,3.973.011.7.014,1.4.123,2.1.19l.151.053c.278.478.64.714,1.188.408Zm4.17,12.073a13.371,13.371,0,0,0-2.661-8.269,8.908,8.908,0,0,0-9.011-3.526,8.429,8.429,0,0,0-6.895,5.861,16.272,16.272,0,0,0-.281,9.546,11.54,11.54,0,0,0,4.2,6.663A8.73,8.73,0,0,0,166.674,63.7a17.062,17.062,0,0,0,1.034-6.592Z" transform="translate(-94.163 -28.699)" fill="#fff"/>
  <path id="Path_4406" data-name="Path 4406" d="M235.557,53.868v-3.33c.067-.039.134-.081.2-.12-.067-.067-.134-.134-.2-.2v-4.49l.141-.046c-.046-.035-.095-.07-.141-.109,0-.222-.011-.443-.014-.664a.406.406,0,0,0,.13-.025c.042-.109.088-.218.13-.327.06-.288.123-.58.183-.868.338.32.7.615,1.009.96q8.76,9.857,17.5,19.72c.162.183.32.369.647.749,0-.52,0-.795,0-1.072q-.127-7.162-.26-14.324c-.018-.967-.067-1.93-.109-2.894-.07-1.593-.51-2.057-2.078-2.2-.313-.028-.629-.046-.942-.07-.014-.084-.028-.169-.042-.257a1.788,1.788,0,0,1,.57-.211q3.2-.021,6.388,0a2.456,2.456,0,0,1,.563.172c-.211.155-.313.288-.443.313-1.744.341-1.867.471-1.979,2.159-.014.218-.046.432-.07.65l-.313-.218c0,1.442-.011,2.83.014,4.219,0,.165.2.327.3.489-.011.773-.018,1.547-.028,2.32a2.921,2.921,0,0,0-.274.844c-.018,3.59-.014,7.179-.011,10.769a3.8,3.8,0,0,0,.039.383c.12-.113.179-.165.239-.221,0,.608,0,1.216,0,1.821v.531a.067.067,0,0,1,0,.1c-.123.113-.243.225-.366.334.123.063.246.123.369.186-.032.338-.063.672-.091,1.009l-.3.144c-6.7-6.652-12.879-13.793-19.211-21.071,0,.921-.018,1.663,0,2.4.127,4.88.246,9.76.408,14.64.035,1.03.028,2.124.953,2.887-.341.246-.679.492-1.02.735l-.3-.067c-.278-.454-.555-.464-.84-.007-.271.014-.545.028-.816.046-.018-.137-.035-.274-.074-.612-.148.352-.211.5-.274.647-.162,0-.327,0-.489.007v-.7c.049-.025.1-.046.148-.07.563.042.534-.316.475-.7l0,.011.077-.021c-.014-.039-.032-.077-.046-.12.007-.056.014-.113.021-.165a2.9,2.9,0,0,0,.3-.861c.032-2.651.032-5.3.039-7.953q-.047-1.144-.1-2.289V53.861Z" transform="translate(-152.15 -28.329)" fill="#fff"/>
  <path id="Path_4407" data-name="Path 4407" d="M20.884,51.031c.014,1.322.025,2.644.039,3.966q.079,7.647.162,15.294a7.659,7.659,0,0,0,.134,1.231,2.008,2.008,0,0,0,1.923,1.934c.844.127,1.709.12,2.553.243a2.819,2.819,0,0,1,.837.45c-.285.169-.573.482-.858.482-1.709,0-3.421-.063-5.13-.105-.049-.077-.1-.151-.151-.229l-.172.2c-.116-.007-.229-.011-.345-.018h-.633l-.38-.011c-.1-.007-.2-.011-.3-.018-1.259-.028-2.514-.056-3.773-.074-.021,0-.046.095-.067.144-1.185.046-2.373.1-3.558.137a.874.874,0,0,1-.482-.095c-.158-.113-.366-.306-.359-.461,0-.134.257-.345.425-.373.517-.088,1.048-.081,1.565-.155,1.29-.183,1.744-.52,1.888-1.8.211-1.885.348-3.787.383-5.685.06-3.143.018-6.29.018-9.437,0-.158-.025-.316-.046-.608A33.424,33.424,0,0,0,7.84,62.668a27.286,27.286,0,0,1,12.872-12.1c.053.155.109.309.162.464Z" transform="translate(-5.084 -32.79)" fill="#fff"/>
  <path id="Path_4408" data-name="Path 4408" d="M93.258,70.245l-.411-.137c.007-.049.014-.095.021-.141-.014.046-.025.095-.039.141l-.214-.088c-.011-.179-.021-.359-.028-.5-.239.056-.443.1-.643.151a14.723,14.723,0,0,1-1.916-1.79c-1.863-2.468-3.667-4.982-5.446-7.51a1.643,1.643,0,0,0-1.579-.8c-1.1.053-2.208.014-3.354.014a1.421,1.421,0,0,0-.077.309c.021,2.486.042,4.968.084,7.45a4.365,4.365,0,0,0,.2,1.385,1.653,1.653,0,0,0,.7.939,13.174,13.174,0,0,0,2.124.5c-.1.088-.211.271-.323.271-2.556.018-5.112.014-7.693-.155.155-.053.309-.109.468-.155a2.069,2.069,0,0,0,1.589-2.2c.039-1.765.162-3.526.172-5.291.025-3.976.011-7.953,0-11.929,0-1.1-.032-2.208-.07-3.308-.049-1.47-.506-1.927-2.008-2.078a5.235,5.235,0,0,1-.721-.172c0-.084.007-.169.011-.257a5.482,5.482,0,0,1,.749-.105c2.82.007,5.643-.007,8.463.053a10.668,10.668,0,0,1,2.538.369c3.569.967,5.288,4.363,4.17,8.111a11.734,11.734,0,0,1-2.985,4.81c-.19.2-.411.362-.731.643,2.4,3,4.725,5.942,7.116,8.828a14.318,14.318,0,0,0,2.015,1.7.9.9,0,0,1-1.115.879,6.168,6.168,0,0,0-1.076.056ZM81.67,45.919l-1.4.105c-.489.039-.721.253-.721.791.018,3.5-.007,7,.032,10.505a1.031,1.031,0,0,0,.594.791,22.694,22.694,0,0,0,3.769.341,3.225,3.225,0,0,0,2.869-2.064,8.713,8.713,0,0,0,.759-4.588c-.285-3.773-2.4-5.864-5.9-5.882Z" transform="translate(-48.047 -29.042)" fill="#fff"/>
  <path id="Path_4409" data-name="Path 4409" d="M621.037,66.279a.3.3,0,0,1,.039.074c.591,2.134.868,2.359,3.189,2.37a27.452,27.452,0,0,0,2.894-.148,2.374,2.374,0,0,0,2.183-2.134c.06-.334.169-.661.257-.991l.232-.011a1.446,1.446,0,0,1,.151.524c-.13,1.118-.232,2.25-.471,3.347a1.277,1.277,0,0,1-.879.77,17.664,17.664,0,0,1-2.894.112c-1.962-.06-3.92-.207-5.882-.257-.991-.025-1.986.091-2.981.123a8.636,8.636,0,0,1-1.044-.12c.3-.229.383-.345.489-.373,1.519-.39,1.828-.738,1.867-2.3.07-2.732.134-5.464.155-8.192.028-3.315.018-6.631,0-9.946,0-.907-.081-1.818-.151-2.721a1.412,1.412,0,0,0-1.371-1.392,2.746,2.746,0,0,1-1.238-.457c4.5-.236,8.987.278,13.624-.415-.162,1.5-.32,2.992-.478,4.476-.113,0-.221,0-.334.007a8.756,8.756,0,0,1-.214-1.079,1.39,1.39,0,0,0-1.241-1.442c-1.754-.186-3.519-.274-5.284-.352-.151-.007-.461.383-.464.594-.032,2.929-.014,5.857-.025,8.786,0,.513.225.682.707.665,1.66-.06,3.323-.046,4.975-.186a6.755,6.755,0,0,0,1.814-.77c-.151,1.659-.3,3.28-.443,4.9l-.3.014c-.039-.236-.081-.471-.113-.71-.183-1.28-.552-1.73-1.825-1.856-1.427-.141-2.872-.155-4.31-.186-.2,0-.4.207-.608.316-.007.116-.014.229-.021.345,0,.091-.011.183-.018.274-.049.063-.1.127-.151.19l.091.049c.021-.074.046-.151.067-.225l.063,2.827c-.084.113-.239.221-.239.334q-.026,2.294,0,4.585a2.019,2.019,0,0,0,.186.591Zm-.07-7.144c-.011-.021-.025-.042-.035-.067-.014.018-.042.039-.042.056s.021.042.032.067l.046-.056Z" transform="translate(-399.15 -28.621)" fill="#91b9ce"/>
  <path id="Path_4410" data-name="Path 4410" d="M323.446,63.76a5.134,5.134,0,0,1,.127.756c.046,2.76,2,4.11,4.363,4.289a4.368,4.368,0,0,0,4.655-2.472,5.29,5.29,0,0,0-1.115-5.966c-1.255-1.28-2.619-2.458-3.952-3.657-1.705-1.533-3.252-3.154-3.769-5.506a6.094,6.094,0,0,1,6.009-7.686,37.2,37.2,0,0,1,4.768.489c.134.018.352.225.352.345-.018,1.41-.07,2.82-.112,4.233-.113.014-.229.028-.341.039a4.075,4.075,0,0,1-.19-.587,3.51,3.51,0,0,0-3.646-3.249,4.041,4.041,0,0,0-3.6,6.916c1.234,1.259,2.658,2.331,3.924,3.558a24.924,24.924,0,0,1,3.3,3.569,7.121,7.121,0,0,1,.281,7.77c-1.325,2.5-3.653,3.4-6.346,3.54a10.1,10.1,0,0,1-4.458-.759c-.506-.211-.865-.51-.847-1.083q.063-2.1.172-4.2c.007-.113.13-.222.2-.331.077,0,.158,0,.236,0Z" transform="translate(-209.339 -28.218)" fill="#91b9ce"/>
  <path id="Path_4411" data-name="Path 4411" d="M20.234,22.579c-.306.13-.612.257-.918.387a3.246,3.246,0,0,1-.236-.816c-.021-3.642-.018-7.285-.035-10.927A11.274,11.274,0,0,0,18.905,9.5a2.388,2.388,0,0,0-2.637-2.377,6.534,6.534,0,0,1-1.15-.095.605.605,0,0,1-.359-.454c0-.144.236-.352.4-.4a2.784,2.784,0,0,1,.823-.046c2.3.046,4.588.134,6.884.137,1.962,0,3.924-.109,5.886-.116.3,0,.608.278.914.429-.3.179-.6.362-.914.531-.063.035-.162.007-.246.011-1.986.084-2.419.422-2.967,2.328-.113.387-.225.773-.334,1.16v.83q0,2.985,0,5.97c-.081.077-.162.155-.243.229l.584.095a.808.808,0,0,1,.158-.018c.144.176.288.355.373.461-.355.32-.682.615-1.009.914v-.007a1.291,1.291,0,0,0-1.512.988l-.046.021h-.049c-.183.109-.362.222-.545.33h0c-.766-.1-1.076.411-1.333.991h0a1.24,1.24,0,0,0-1.336,1.178Z" transform="translate(-9.57 -3.966)" fill="#8eb9cf"/>
  <path id="Path_4412" data-name="Path 4412" d="M392.779,44.379c.288-.06.573-.12.872-.179v4.578l-.278.042a3.676,3.676,0,0,1-.232-.7c-.158-1.157-.6-1.751-1.726-1.867-2.078-.214-4.17-.309-6.262-.457,0,6.954-.007,13.736.014,20.519a11.2,11.2,0,0,0,.278,2.124,1.212,1.212,0,0,0,1.241,1.009c.51.035,1.016.127,1.526.2.011.084.021.165.032.25a3.066,3.066,0,0,1-.735.2q-3.449.021-6.895,0a2.825,2.825,0,0,1-.622-.137v-.222a2.113,2.113,0,0,1,.563-.211,1.509,1.509,0,0,0,1.526-1.614c.091-1.181.211-2.363.214-3.547.021-5.935.007-11.873.007-17.808,0-.165-.018-.327-.035-.6-1.459,0-2.911-.011-4.363,0a6.733,6.733,0,0,0-1.484.123c-.707.165-1.392.425-2.085.647a1.311,1.311,0,0,1-.165-.014c.172-.633.541-1.125,1.231-1.118,1.863.011,3.723.084,5.587.134h1.663q0,7.905,0,15.811c0,2.662.214,5.344-.657,7.992h3.667c-.281-.327-.622-.541-.654-.795a32.739,32.739,0,0,1-.341-3.882c-.035-5.822-.014-11.645-.018-17.463,0-.25.091-.577-.035-.728-.362-.443-.025-.661.2-.932H390.3c.967.179,1.934.359,2.932.541a1.757,1.757,0,0,0-.454-1.9Z" transform="translate(-242.617 -28.66)" fill="#9bb9c7"/>
  <path id="Path_4413" data-name="Path 4413" d="M44.044,36.37c.327-.3.657-.594,1.009-.914-.084-.105-.229-.281-.373-.461a43.568,43.568,0,0,1,5.59-1.723,55.171,55.171,0,0,1,6.983-.492c-2.4.411-4.841.679-7.2,1.276a43.642,43.642,0,0,0-5.168,2c-.281.109-.566.207-.847.313Z" transform="translate(-28.556 -21.255)" fill="#9dbbc9"/>
  <path id="Path_4414" data-name="Path 4414" d="M372.66,45.631a3.977,3.977,0,0,1,.021-.411c.2-1.29.207-1.294,1.427-1.086a7.876,7.876,0,0,0,1.308.165q8.116.005,16.233-.011c-.362.693-1.005.19-1.494.348-.788,0-1.579-.025-2.363.014-.214.011-.422.2-.633.316a20.407,20.407,0,0,0-2.387-.267,24,24,0,0,0-2.6.264c-.44-.7-1.122-.158-1.667-.327h-5.319a3.1,3.1,0,0,1-1.108-.148c-.7-.394-.844.074-1.051.534a6.3,6.3,0,0,1-.362.608Z" transform="translate(-241.638 -28.551)" fill="#9bb9c7"/>
  <path id="Path_4415" data-name="Path 4415" d="M380,45.205h.5c.035.179.074.362.091.464-.229.2-.408.362-.591.524-1.863-.049-3.723-.123-5.587-.134-.689,0-1.058.485-1.231,1.118-.752.049-.4-.556-.524-.875a.128.128,0,0,1,0-.1,5.9,5.9,0,0,0,.362-.608c.211-.461.352-.928,1.051-.534a3.11,3.11,0,0,0,1.108.148c.158.109.313.313.475.316,1.29.025,2.584.025,3.874,0,.162,0,.316-.2.475-.313Z" transform="translate(-241.625 -29.12)" fill="#8bb9d2"/>
  <path id="Path_4416" data-name="Path 4416" d="M296.865,85.345c-.06.056-.12.113-.239.221a3.8,3.8,0,0,1-.039-.383c0-3.59-.007-7.179.011-10.769a2.922,2.922,0,0,1,.274-.844q0,5.886-.011,11.775Z" transform="translate(-192.31 -47.704)" fill="#fff"/>
  <path id="Path_4417" data-name="Path 4417" d="M420.883,45.08c.489-.158,1.132.341,1.494-.348a.443.443,0,0,1,.151-.014,1.757,1.757,0,0,1,.454,1.9c-1-.186-1.965-.362-2.932-.541l.833-.991Z" transform="translate(-272.366 -28.995)" fill="#8bb9d2"/>
  <path id="Path_4418" data-name="Path 4418" d="M128.59,115.465a6.918,6.918,0,0,1,1.076-.056.9.9,0,0,0,1.115-.879l3.2.837c-.32.436-3.678.52-5.386.1Z" transform="translate(-83.379 -74.263)" fill="#fff"/>
  <path id="Path_4419" data-name="Path 4419" d="M236.881,87.63c-.007,2.651-.007,5.3-.039,7.953a2.807,2.807,0,0,1-.3.861c.046-2.553.088-5.105.141-7.654.007-.38.06-.759.091-1.139l.053-.021Z" transform="translate(-153.376 -56.82)" fill="#fff"/>
  <path id="Path_4420" data-name="Path 4420" d="M180.888,44.039c-.7-.067-1.4-.176-2.1-.19-1.325-.028-2.647,0-3.973-.011a5.259,5.259,0,0,1-.763-.113,13.393,13.393,0,0,1,6.838.316Z" transform="translate(-112.856 -28.158)" fill="#fff"/>
  <path id="Path_4421" data-name="Path 4421" d="M242.59,116.315c.341-.246.679-.492,1.02-.735.717.13,1.434.257,2.148.387,0,.1.007.2.011.3A12.316,12.316,0,0,1,242.59,116.315Z" transform="translate(-157.299 -74.944)" fill="#fff"/>
  <path id="Path_4422" data-name="Path 4422" d="M537.821,116.016c.056-.169.109-.338.165-.506l2.3.39v.327a5.649,5.649,0,0,1-2.475.018c0-.074,0-.148.007-.225h0Z" transform="translate(-348.723 -74.898)" fill="#a3bec8"/>
  <path id="Path_4423" data-name="Path 4423" d="M296.9,58.3c-.105-.162-.3-.323-.3-.489-.025-1.389-.014-2.774-.014-4.219.148.1.229.162.313.218Z" transform="translate(-192.309 -34.748)" fill="#fff"/>
  <path id="Path_4424" data-name="Path 4424" d="M371.805,48.864c.123.323-.225.928.524.875a1.308,1.308,0,0,0,.165.014q-.427.854-.854,1.705l-.257-.088a4.043,4.043,0,0,1,.418-2.51Z" transform="translate(-240.78 -31.681)" fill="#a1bac3"/>
  <path id="Path_4425" data-name="Path 4425" d="M44.464,17.55v-.83c.113-.387.225-.773.334-1.16-.014,2.394-.025,4.785-.046,7.179a3.333,3.333,0,0,1-.116.633c-.007-1.652,0-3.3-.025-4.961a4.917,4.917,0,0,0-.151-.861Z" transform="translate(-28.828 -10.089)" fill="#9dbbc9"/>
  <path id="Path_4426" data-name="Path 4426" d="M524.607,115.83c.288.221.58.439.868.661-.686.021-1.371.063-2.053.049-.186,0-.369-.193-.552-.3a2.253,2.253,0,0,1,.591-.306,9.576,9.576,0,0,1,1.146-.1Z" transform="translate(-339.036 -75.106)" fill="#a3bec8"/>
  <path id="Path_4427" data-name="Path 4427" d="M468.33,118.72h0Z" transform="translate(-303.671 -76.98)" fill="#a3bec8"/>
  <path id="Path_4428" data-name="Path 4428" d="M630.737,96.949a2.256,2.256,0,0,1-.186-.591q-.021-2.294,0-4.585c0-.113.158-.225.239-.334q-.032,2.753-.056,5.513Z" transform="translate(-408.85 -59.291)" fill="#8ab0c3"/>
  <path id="Path_4429" data-name="Path 4429" d="M534.8,74c-.091-.148-.257-.292-.257-.439-.018-1.463-.011-2.925,0-4.388,0-.1.084-.193.13-.292.011.981.021,1.965.032,2.946l.074.654c.007.506.014,1.013.021,1.515Z" transform="translate(-346.596 -44.663)" fill="#97b1bc"/>
  <path id="Path_4430" data-name="Path 4430" d="M27.45,118.424c.021-.049.046-.144.067-.144,1.259.021,2.514.049,3.773.074-1.28.021-2.56.046-3.839.067Z" transform="translate(-17.799 -76.694)" fill="#fff"/>
  <path id="Path_4431" data-name="Path 4431" d="M44.464,21.22a5.268,5.268,0,0,1,.151.861c.021,1.652.018,3.3.025,4.961,0,.1,0,.207,0,.309-.06-.053-.116-.109-.176-.162q0-2.985,0-5.97Z" transform="translate(-28.828 -13.759)" fill="#91abb7"/>
  <path id="Path_4432" data-name="Path 4432" d="M237.23,64.15v0Z" transform="translate(-153.823 -41.596)" fill="#fff"/>
  <path id="Path_4433" data-name="Path 4433" d="M232.053,115.72v.7c-.334,0-.672.007-1.006.014-.134-.091-.264-.183-.4-.271l.566-.123.179-.105c.218-.07.439-.137.657-.207Z" transform="translate(-149.557 -75.034)" fill="#fff"/>
  <path id="Path_4434" data-name="Path 4434" d="M237.309,83.409h-.056l-.053.018c0-.77.007-1.536.007-2.306q.047,1.144.1,2.289Z" transform="translate(-153.804 -52.599)" fill="#fff"/>
  <path id="Path_4435" data-name="Path 4435" d="M237.23,55.66v0Z" transform="translate(-153.823 -36.091)" fill="#fff"/>
  <path id="Path_4436" data-name="Path 4436" d="M30.33,50.767a1.24,1.24,0,0,1,1.336-1.178Z" transform="translate(-19.666 -32.154)" fill="#9dbbc9"/>
  <path id="Path_4437" data-name="Path 4437" d="M39.74,43.93a1.3,1.3,0,0,1,1.512-.988C40.749,43.273,40.243,43.6,39.74,43.93Z" transform="translate(-25.768 -27.835)" fill="#9dbbc9"/>
  <path id="Path_4438" data-name="Path 4438" d="M34.13,47.737c.257-.58.563-1.093,1.333-.991Q34.8,47.242,34.13,47.737Z" transform="translate(-22.13 -30.302)" fill="#9dbbc9"/>
  <path id="Path_4439" data-name="Path 4439" d="M166.348,45.7c-.25.682-.788.682-1.368.57Z" transform="translate(-106.975 -29.632)" fill="#fff"/>
  <path id="Path_4440" data-name="Path 4440" d="M195.128,45.728c-.548.306-.911.07-1.188-.408Z" transform="translate(-125.753 -29.386)" fill="#fff"/>
  <path id="Path_4441" data-name="Path 4441" d="M237.32,44.9a.406.406,0,0,1-.13.025q-.011-1.013.443-1.22c-.06.288-.123.58-.183.868C237.408,44.677,237.362,44.786,237.32,44.9Z" transform="translate(-153.797 -28.336)" fill="#fff"/>
  <path id="Path_4442" data-name="Path 4442" d="M239.34,116.837c.285-.457.566-.447.84.007C239.9,116.844,239.618,116.84,239.34,116.837Z" transform="translate(-155.191 -75.539)" fill="#fff"/>
  <path id="Path_4443" data-name="Path 4443" d="M230.16,116.791c.134.091.264.183.4.271a5.136,5.136,0,0,1-.619-.084c-.035-.007-.028-.183-.039-.278.084.032.172.06.257.091Z" transform="translate(-149.07 -75.67)" fill="#282526"/>
  <path id="Path_4444" data-name="Path 4444" d="M124.85,115.271c.2-.046.4-.095.643-.151.007.144.018.323.028.5C125.3,115.507,125.075,115.387,124.85,115.271Z" transform="translate(-80.954 -74.645)" fill="#fff"/>
  <path id="Path_4445" data-name="Path 4445" d="M170.361,44.81c-.243.07-.489.137-.731.207C169.873,44.947,170.119,44.88,170.361,44.81Z" transform="translate(-109.99 -29.055)" fill="#fff"/>
  <path id="Path_4446" data-name="Path 4446" d="M235.535,113.55c.06.38.084.738-.475.7Z" transform="translate(-152.416 -73.627)" fill="#fff"/>
  <path id="Path_4447" data-name="Path 4447" d="M44,38.2c.06.053.116.109.176.162s.109.109.165.162l-.584-.095C43.841,38.351,43.922,38.274,44,38.2Z" transform="translate(-28.375 -24.769)" fill="#9dbbc9"/>
  <path id="Path_4448" data-name="Path 4448" d="M199.362,47.448l-.672-.338Z" transform="translate(-128.833 -30.547)" fill="#fff"/>
  <path id="Path_4449" data-name="Path 4449" d="M236.03,116.487c.063-.148.127-.3.274-.647.042.338.06.475.074.612C236.262,116.462,236.146,116.473,236.03,116.487Z" transform="translate(-153.045 -75.112)" fill="#fff"/>
  <path id="Path_4450" data-name="Path 4450" d="M37.92,46.16c.179-.109.362-.221.545-.33C38.286,45.939,38.1,46.051,37.92,46.16Z" transform="translate(-24.588 -29.717)" fill="#9dbbc9"/>
  <path id="Path_4451" data-name="Path 4451" d="M172.653,44.36c-.172.039-.341.081-.513.12C172.312,44.441,172.481,44.4,172.653,44.36Z" transform="translate(-111.618 -28.764)" fill="#fff"/>
  <path id="Path_4452" data-name="Path 4452" d="M297.37,112.781v0Z" transform="translate(-192.819 -72.784)" fill="#fff"/>
  <path id="Path_4453" data-name="Path 4453" d="M201.146,48.386c-.186-.105-.373-.211-.555-.316C200.776,48.175,200.963,48.281,201.146,48.386Z" transform="translate(-130.065 -31.169)" fill="#fff"/>
  <path id="Path_4454" data-name="Path 4454" d="M296.689,114.58c-.123-.063-.246-.123-.369-.186.123-.113.243-.225.366-.334v.524Z" transform="translate(-192.138 -73.958)" fill="#fff"/>
  <path id="Path_4455" data-name="Path 4455" d="M535.094,77.924l-.074-.654Z" transform="translate(-346.914 -50.103)" fill="#90b9ce"/>
  <path id="Path_4456" data-name="Path 4456" d="M41.06,118.58h0Z" transform="translate(-26.624 -76.889)" fill="#fff"/>
  <path id="Path_4457" data-name="Path 4457" d="M43.06,118.264l.172-.2.151.229-.323-.021Z" transform="translate(-27.921 -76.552)" fill="#fff"/>
  <path id="Path_4458" data-name="Path 4458" d="M237.23,62.26c.067.067.134.134.2.2-.067.039-.134.081-.2.12Z" transform="translate(-153.823 -40.37)" fill="#fff"/>
  <path id="Path_4459" data-name="Path 4459" d="M44.642,51.024c-.053-.155-.109-.309-.162-.464C44.533,50.715,44.589,50.869,44.642,51.024Z" transform="translate(-28.841 -32.784)" fill="#0b0809"/>
  <path id="Path_4460" data-name="Path 4460" d="M631.11,81.955c.007-.116.014-.229.021-.345C631.124,81.726,631.117,81.839,631.11,81.955Z" transform="translate(-409.22 -52.917)" fill="#8ab0c3"/>
  <path id="Path_4461" data-name="Path 4461" d="M237.23,49.06c.046.035.095.07.141.109l-.141.046V49.06Z" transform="translate(-153.823 -31.811)" fill="#fff"/>
  <path id="Path_4462" data-name="Path 4462" d="M39.2,118.54l.38.011Z" transform="translate(-25.418 -76.863)" fill="#fff"/>
  <path id="Path_4463" data-name="Path 4463" d="M127.38,116.551c.011-.046.025-.095.039-.141-.007.046-.014.095-.021.141Z" transform="translate(-82.595 -75.482)" fill="#fff"/>
  <path id="Path_4464" data-name="Path 4464" d="M236.412,113.18c.014.039.032.077.046.12l-.077.021a.114.114,0,0,1,.032-.137Z" transform="translate(-153.265 -73.387)" fill="#fff"/>
  <path id="Path_4465" data-name="Path 4465" d="M232.429,116.31l-.179.105Z" transform="translate(-150.594 -75.417)" fill="#282526"/>
  <path id="Path_4466" data-name="Path 4466" d="M536.48,117.367c.018-.042.039-.084.056-.127.028.035.06.07.088.109A.647.647,0,0,1,536.48,117.367Z" transform="translate(-347.861 -76.02)" fill="#a3bec8"/>
  <path id="Path_4467" data-name="Path 4467" d="M169.281,45.494c.028.035.056.07-.011-.014.063.084.035.049.007.011h0Z" transform="translate(-109.757 -29.49)" fill="#fff"/>
  <path id="Path_4468" data-name="Path 4468" d="M537.707,116.889c-.021-.014-.042-.025-.067-.039.025.011.046.025.07.035h0Z" transform="translate(-348.613 -75.767)" fill="#a3bec8"/>
  <path id="Path_4469" data-name="Path 4469" d="M237.56,46.5c.042-.109.088-.218.13-.327C237.648,46.279,237.6,46.388,237.56,46.5Z" transform="translate(-154.037 -29.937)" fill="#fff"/>
  <path id="Path_4470" data-name="Path 4470" d="M630.757,86.667l-.046.056c-.011-.021-.035-.046-.032-.067s.028-.039.042-.056C630.732,86.621,630.746,86.642,630.757,86.667Z" transform="translate(-408.941 -56.153)" fill="#8ab0c3"/>
  <path id="Path_4471" data-name="Path 4471" d="M630.788,83.374c-.021.074-.046.151-.067.225l-.091-.049c.049-.063.1-.127.151-.19l0,.011Z" transform="translate(-408.909 -54.052)" fill="#8ab0c3"/>
  <path id="Path_4472" data-name="Path 4472" d="M44.47,18.86v0Z" transform="translate(-28.835 -12.229)" fill="#91abb7"/>
  <path id="Path_4473" data-name="Path 4473" d="M399.243,48.574c-.229.271-.563.489-.2.932.123.151.035.482.035.728,0,5.822-.018,11.645.018,17.463a32.733,32.733,0,0,0,.341,3.882c.032.253.373.468.654.795H396.42c.872-2.647.65-5.33.658-7.992.011-5.27,0-10.541,0-15.811h2.166Z" transform="translate(-257.044 -31.493)" fill="#8bb8d1"/>
  <path id="Path_4474" data-name="Path 4474" d="M399.665,46.868h-2.5c-.028-.2-.06-.394-.1-.664H398a24.089,24.089,0,0,1,2.6-.264,19.679,19.679,0,0,1,2.387.267c.475-.025.942-.042.833.664h-4.156Z" transform="translate(-257.466 -29.788)" fill="#89b9d3"/>
  <path id="Path_4475" data-name="Path 4475" d="M414.723,46.721c.109-.7-.359-.689-.833-.665.211-.109.415-.306.633-.316.788-.039,1.575-.014,2.363-.014l-.833.991H414.72Z" transform="translate(-268.372 -29.644)" fill="#8eb8ce"/>
  <path id="Path_4476" data-name="Path 4476" d="M395.716,46.005h-.932c.042.271.07.468.1.664H393.55l.591-.524c-.021-.1-.056-.281-.091-.464.545.169,1.227-.373,1.667.327Z" transform="translate(-255.183 -29.593)" fill="#8eb8ce"/>
  <path id="Path_4477" data-name="Path 4477" d="M384.664,45.744c-.158.109-.316.309-.475.313-1.29.025-2.584.025-3.874,0-.158,0-.316-.207-.475-.316h4.824Z" transform="translate(-246.293 -29.658)" fill="#8eb8ce"/>
  <g id="Group_2468" data-name="Group 2468" transform="translate(113.436 44.455)">
    <path id="Path_4478" data-name="Path 4478" d="M322.64,135.407V126.79h2.665a3.067,3.067,0,0,1,2.05.6,2.193,2.193,0,0,1,.7,1.761,2.127,2.127,0,0,1-.292,1.132,1.71,1.71,0,0,1-.795.693,1.5,1.5,0,0,1,.893.665,2.3,2.3,0,0,1,.313,1.234,2.461,2.461,0,0,1-.689,1.9,2.823,2.823,0,0,1-2,.64H322.64Zm1.74-5.014h.907a.92.92,0,0,0,1.023-1.058,1.212,1.212,0,0,0-.236-.84,1.015,1.015,0,0,0-.77-.253h-.925V130.4Zm0,1.266v2.3h1.115a.873.873,0,0,0,.71-.292,1.248,1.248,0,0,0,.243-.823c0-.773-.281-1.171-.84-1.188Z" transform="translate(-322.64 -126.667)" fill="#fff"/>
    <path id="Path_4479" data-name="Path 4479" d="M349.595,126.79v5.966a2.781,2.781,0,0,1-.738,2.057,2.865,2.865,0,0,1-2.088.714,2.914,2.914,0,0,1-2.117-.721,2.8,2.8,0,0,1-.731-2.088v-5.924h1.751v5.931a1.772,1.772,0,0,0,.236,1.048,1.019,1.019,0,0,0,.858.313.994.994,0,0,0,.851-.309,1.762,1.762,0,0,0,.236-1.02V126.8h1.74Z" transform="translate(-336.438 -126.667)" fill="#fff"/>
    <path id="Path_4480" data-name="Path 4480" d="M369.119,132.933a1.076,1.076,0,0,0-.271-.795,3.1,3.1,0,0,0-.981-.559,4.535,4.535,0,0,1-1.863-1.15,2.31,2.31,0,0,1-.57-1.561,2.18,2.18,0,0,1,.774-1.747,2.918,2.918,0,0,1,1.962-.661,2.955,2.955,0,0,1,1.413.334,2.317,2.317,0,0,1,.956.946,2.814,2.814,0,0,1,.334,1.385H369.14a1.424,1.424,0,0,0-.257-.921.9.9,0,0,0-.742-.316.915.915,0,0,0-.71.271,1.022,1.022,0,0,0-.253.724.9.9,0,0,0,.285.643,3.27,3.27,0,0,0,1.006.594,4.28,4.28,0,0,1,1.832,1.118,2.5,2.5,0,0,1,.57,1.688,2.224,2.224,0,0,1-.717,1.758,2.835,2.835,0,0,1-1.948.633,3.375,3.375,0,0,1-1.522-.345,2.592,2.592,0,0,1-1.076-.981,2.833,2.833,0,0,1-.387-1.508h1.747a1.648,1.648,0,0,0,.292,1.083,1.187,1.187,0,0,0,.946.338c.608,0,.911-.323.911-.963Z" transform="translate(-350.249 -126.453)" fill="#fff"/>
    <path id="Path_4481" data-name="Path 4481" d="M388.67,135.407h-1.74V126.79h1.74Z" transform="translate(-364.327 -126.667)" fill="#fff"/>
    <path id="Path_4482" data-name="Path 4482" d="M404.2,135.407h-1.74l-2.546-5.654v5.654h-1.74V126.79h1.74l2.553,5.657V126.79H404.2Z" transform="translate(-371.615 -126.667)" fill="#fff"/>
    <path id="Path_4483" data-name="Path 4483" d="M425.871,131.677H423.16v2.285h3.206v1.445H421.42V126.79h4.936v1.449h-3.2v2.036h2.711Z" transform="translate(-386.69 -126.667)" fill="#fff"/>
    <path id="Path_4484" data-name="Path 4484" d="M443.639,132.933a1.076,1.076,0,0,0-.271-.795,3.1,3.1,0,0,0-.981-.559,4.535,4.535,0,0,1-1.863-1.15,2.31,2.31,0,0,1-.57-1.561,2.18,2.18,0,0,1,.773-1.747,2.918,2.918,0,0,1,1.962-.661,2.955,2.955,0,0,1,1.413.334,2.317,2.317,0,0,1,.956.946,2.814,2.814,0,0,1,.334,1.385H443.66a1.424,1.424,0,0,0-.257-.921.9.9,0,0,0-.742-.316.915.915,0,0,0-.71.271,1.022,1.022,0,0,0-.253.724.9.9,0,0,0,.285.643,3.27,3.27,0,0,0,1.006.594,4.28,4.28,0,0,1,1.832,1.118,2.5,2.5,0,0,1,.57,1.688,2.224,2.224,0,0,1-.717,1.758,2.836,2.836,0,0,1-1.948.633,3.375,3.375,0,0,1-1.522-.345,2.592,2.592,0,0,1-1.076-.981,2.832,2.832,0,0,1-.387-1.508h1.747a1.648,1.648,0,0,0,.292,1.083,1.187,1.187,0,0,0,.946.338c.608,0,.911-.323.911-.963Z" transform="translate(-398.569 -126.453)" fill="#fff"/>
    <path id="Path_4485" data-name="Path 4485" d="M464.4,132.933a1.076,1.076,0,0,0-.271-.795,3.1,3.1,0,0,0-.981-.559,4.535,4.535,0,0,1-1.863-1.15,2.31,2.31,0,0,1-.57-1.561,2.18,2.18,0,0,1,.773-1.747,2.918,2.918,0,0,1,1.962-.661,2.955,2.955,0,0,1,1.413.334,2.317,2.317,0,0,1,.956.946,2.815,2.815,0,0,1,.334,1.385H464.42a1.424,1.424,0,0,0-.257-.921.9.9,0,0,0-.742-.316.915.915,0,0,0-.71.271,1.022,1.022,0,0,0-.253.724.9.9,0,0,0,.285.643,3.27,3.27,0,0,0,1.006.594,4.28,4.28,0,0,1,1.832,1.118,2.5,2.5,0,0,1,.57,1.688,2.224,2.224,0,0,1-.717,1.758,2.835,2.835,0,0,1-1.948.633,3.375,3.375,0,0,1-1.522-.345,2.592,2.592,0,0,1-1.076-.981,2.832,2.832,0,0,1-.387-1.508h1.747a1.648,1.648,0,0,0,.292,1.083,1.187,1.187,0,0,0,.946.338c.608,0,.911-.323.911-.963Z" transform="translate(-412.03 -126.453)" fill="#fff"/>
    <path id="Path_4486" data-name="Path 4486" d="M497.622,132.324a3.223,3.223,0,0,1-.83,2.233,2.924,2.924,0,0,1-2.155.759,2.706,2.706,0,0,1-2.24-.963,4.247,4.247,0,0,1-.777-2.742v-1.449a4.151,4.151,0,0,1,.805-2.739,3.182,3.182,0,0,1,4.377-.176,3.592,3.592,0,0,1,.833,2.261h-1.747a2.3,2.3,0,0,0-.281-1.259,1.107,1.107,0,0,0-.946-.348,1.058,1.058,0,0,0-.988.489,3.444,3.444,0,0,0-.309,1.607v1.628a3.729,3.729,0,0,0,.288,1.765,1.055,1.055,0,0,0,.984.478,1.131,1.131,0,0,0,.946-.334,2.217,2.217,0,0,0,.3-1.209h1.74Z" transform="translate(-432.209 -126.453)" fill="#fff"/>
    <path id="Path_4487" data-name="Path 4487" d="M519.673,131.653a4.028,4.028,0,0,1-.819,2.693,2.828,2.828,0,0,1-2.275.96,2.86,2.86,0,0,1-2.278-.949,3.957,3.957,0,0,1-.84-2.662v-1.473a4.237,4.237,0,0,1,.823-2.774,3.113,3.113,0,0,1,4.553-.018,4.175,4.175,0,0,1,.84,2.749v1.473Zm-1.744-1.445a3.524,3.524,0,0,0-.331-1.733,1.222,1.222,0,0,0-2.053-.021,3.389,3.389,0,0,0-.345,1.667v1.533a3.213,3.213,0,0,0,.337,1.667,1.141,1.141,0,0,0,1.041.534,1.1,1.1,0,0,0,1.013-.524,3.127,3.127,0,0,0,.338-1.624v-1.5Z" transform="translate(-446.37 -126.446)" fill="#fff"/>
    <path id="Path_4488" data-name="Path 4488" d="M539.546,133.642h-2.373l-.461,1.765H534.87l2.693-8.617h1.593l2.711,8.617h-1.86Zm-1.993-1.449h1.61l-.805-3.073-.805,3.073Z" transform="translate(-460.253 -126.667)" fill="#fff"/>
    <path id="Path_4489" data-name="Path 4489" d="M564.742,132.324a3.223,3.223,0,0,1-.83,2.233,2.924,2.924,0,0,1-2.155.759,2.706,2.706,0,0,1-2.24-.963,4.247,4.247,0,0,1-.777-2.742v-1.449a4.152,4.152,0,0,1,.805-2.739,3.182,3.182,0,0,1,4.377-.176,3.591,3.591,0,0,1,.833,2.261h-1.747a2.3,2.3,0,0,0-.281-1.259,1.107,1.107,0,0,0-.946-.348,1.058,1.058,0,0,0-.988.489,3.443,3.443,0,0,0-.309,1.607v1.628a3.728,3.728,0,0,0,.288,1.765,1.055,1.055,0,0,0,.984.478,1.131,1.131,0,0,0,.946-.334,2.216,2.216,0,0,0,.3-1.209h1.74Z" transform="translate(-475.73 -126.453)" fill="#fff"/>
    <path id="Path_4490" data-name="Path 4490" d="M587.044,135.407H585.31v-3.688h-2.57v3.688H581V126.79h1.74v3.488h2.57V126.79h1.733Z" transform="translate(-490.164 -126.667)" fill="#fff"/>
    <path id="Path_4491" data-name="Path 4491" d="M606.26,135.407h-1.74V126.79h1.74Z" transform="translate(-505.415 -126.667)" fill="#fff"/>
    <path id="Path_4492" data-name="Path 4492" d="M621.786,135.407h-1.74l-2.545-5.654v5.654h-1.74V126.79h1.74l2.552,5.657V126.79h1.733Z" transform="translate(-512.703 -126.667)" fill="#fff"/>
    <path id="Path_4493" data-name="Path 4493" d="M644.631,134.2a3.157,3.157,0,0,1-1.234.819,4.522,4.522,0,0,1-1.6.274,2.933,2.933,0,0,1-2.31-.921,3.991,3.991,0,0,1-.847-2.679v-1.551a4.267,4.267,0,0,1,.777-2.742,2.757,2.757,0,0,1,2.271-.963,2.929,2.929,0,0,1,2.117.693,3.289,3.289,0,0,1,.826,2.173h-1.695a1.944,1.944,0,0,0-.345-1.122,1.093,1.093,0,0,0-.851-.3,1.113,1.113,0,0,0-1.023.513,3.261,3.261,0,0,0-.33,1.638V131.6a3.194,3.194,0,0,0,.352,1.712,1.276,1.276,0,0,0,1.157.534,1.508,1.508,0,0,0,.833-.207l.155-.105v-1.582h-1.22v-1.315h2.964V134.2Z" transform="translate(-527.539 -126.44)" fill="#fff"/>
  </g>
</svg>
