<svg width="1431" height="199" viewBox="0 0 1431 199" fill="none" xmlns="http://www.w3.org/2000/svg">
<g clip-path="url(#clip0_0_319)">
<path d="M58.2608 199H226.536V167.27H92.1565C80.2775 167.27 70.0067 163.147 61.6322 155.018C53.1574 146.472 48.9253 136.313 48.9253 124.698V0H0V141.366C0 157.402 5.58845 170.724 17.0883 182.094C28.4785 193.482 41.9349 199 58.2608 199Z" fill="#101820"/>
<path d="M852.611 0H583.853V31.7303H693.672V199H742.596V31.7303H852.611V0Z" fill="#101820"/>
<path d="M1270.72 199H1439V167.27H1304.62C1292.74 167.27 1282.47 163.147 1274.1 155.018C1265.62 146.47 1261.39 136.312 1261.39 124.698V0H1212.46V141.366C1212.46 157.402 1218.05 170.724 1229.55 182.094C1240.94 193.482 1254.4 199 1270.72 199Z" fill="#101820"/>
<path d="M523.038 31.7294V0H354.761C338.556 0 325.09 5.52937 313.592 16.9054C308.998 21.4508 305.375 26.2983 302.661 31.5498H411.897V31.7293L523.038 31.7294Z" fill="#101820"/>
<path d="M402.562 83.8851H296.502V141.365C296.502 157.401 302.093 170.724 313.591 182.095C324.981 193.482 338.435 198.999 354.761 198.999H527.201V167.27H371.613C364.613 167.27 358.264 164.752 353.25 159.988L352.994 159.736C348.042 154.653 345.426 148.3 345.426 141.365V115.464H518.874V83.7327H411.897L402.562 83.8851Z" fill="#101820"/>
<path d="M1127.48 31.7294V0H959.204C942.998 0 929.533 5.52937 918.033 16.9054C913.44 21.4508 909.817 26.2983 907.104 31.5498H1022.47V31.7293L1127.48 31.7294Z" fill="#101820"/>
<path d="M1013.13 83.8851H900.945V141.365C900.945 157.401 906.535 170.724 918.033 182.095C929.423 193.482 942.878 198.999 959.204 198.999H1131.64V167.27H976.053C969.055 167.27 962.707 164.752 957.692 159.988L957.437 159.736C952.485 154.653 949.869 148.3 949.869 141.365V115.464H1123.32V83.7327H1022.47L1013.13 83.8851Z" fill="#101820"/>
</g>
<defs>
<clipPath id="clip0_0_319">
<rect width="1439" height="199" fill="white"/>
</clipPath>
</defs>
</svg>
