<svg xmlns="http://www.w3.org/2000/svg" xmlns:xlink="http://www.w3.org/1999/xlink" width="485.01" height="698.241" viewBox="0 0 485.01 698.241">
  <defs>
    <clipPath id="clip-path">
      <path id="Path_129" data-name="Path 129" d="M631.117,778.322a469.349,469.349,0,0,0-188,39.193c.047-86.908.294-108.958,1.769-133.477,1.768-32.33,8.865-48.02,32.787-52.623,10.633-1.863,17.716-2.787,26.581-2.787s14.18-1.85,14.18-9.239c0-5.539-7.1-7.388-18.606-7.388-33.676,0-85.96,2.774-108.114,2.774-25.7,0-81.522-2.774-115.2-2.774-14.18,0-21.264,1.849-21.264,7.388,0,7.389,5.316,9.239,14.169,9.239,10.644,0,22.165.924,31.908,3.7,19.485,4.624,28.349,20.317,30.129,51.709,1.78,29.567,1.78,55.422,1.78,195.807v40.141a489.825,489.825,0,0,1,109.871-81.826,469.827,469.827,0,0,1,225.537-57.647c3.4,0,6.733.2,10.118.258-15.68-1.57-31.558-2.448-47.646-2.448Z" transform="translate(-255.252 -612)" fill="#fff"/>
    </clipPath>
    <clipPath id="clip-path-2">
      <path id="Path_131" data-name="Path 131" d="M583.546,1043.664c-13.29,0-32.787-1.851-45.2-3.689-26.58-3.688-32.787-20.305-35.445-45.246-3.547-39.72-3.547-112.682-3.547-202.283V635.339a483.053,483.053,0,0,0-109.871,68.336A503.632,503.632,0,0,0,280.972,828.394,513.506,513.506,0,0,0,250,886.637c6.464-11.239,13.4-22.153,20.644-32.809a500.882,500.882,0,0,1,118.84-123.055v61.674c0,89.6,0,162.562-4.438,201.357-2.658,26.791-7.985,42.482-25.691,46.171a139.728,139.728,0,0,1-31.908,3.689c-10.632,0-14.18,2.774-14.18,7.412,0,6.44,6.206,9.215,17.728,9.215,35.445,0,91.265-2.776,111.651-2.776,23.934,0,79.753,2.776,138.243,2.776,9.73,0,16.838-2.776,16.838-9.215,0-4.637-4.438-7.412-14.181-7.412Z" transform="translate(-250 -635.339)" fill="#fff"/>
    </clipPath>
  </defs>
  <g id="Group_2396" data-name="Group 2396" opacity="0.159" style="isolation: isolate">
    <g id="Group_357" data-name="Group 357" transform="translate(61.499)" clip-path="url(#clip-path)">
      <path id="Path_128" data-name="Path 128" d="M255.252,907.5V612H678.764V907.5Z" transform="translate(-255.25 -612)" fill="#fff"/>
    </g>
    <g id="Group_359" data-name="Group 359" transform="translate(0 273.289)" clip-path="url(#clip-path-2)">
      <path id="Path_130" data-name="Path 130" d="M250,1098.031V634.392H597.731l10.117,465.852L250,1098.031Z" transform="translate(-250 -645.48)" fill="#fff"/>
    </g>
  </g>
</svg>
